<svg height="496pt" viewBox="0 -48 496 496" width="496pt" xmlns="http://www.w3.org/2000/svg"><path d="m424 272h-144c-39.703125 0-72-32.296875-72-72 0-39.695312 32.296875-72 72-72h144c39.703125 0 72 32.304688 72 72 0 39.703125-32.296875 72-72 72zm-144-128c-30.871094 0-56 25.121094-56 56 0 30.871094 25.128906 56 56 56h144c30.871094 0 56-25.128906 56-56 0-30.878906-25.128906-56-56-56zm0 0"/><path d="m344 136h16v128h-16zm0 0"/><path d="m424 240h-16v-16h16c13.230469 0 24-10.769531 24-24h16c0 22.054688-17.945312 40-40 40zm0 0"/><path d="m216 400h-176c-22.054688 0-40-17.945312-40-40v-320c0-22.054688 17.945312-40 40-40h176c22.054688 0 40 17.945312 40 40v104.632812h-16v-104.632812c0-13.230469-10.769531-24-24-24h-176c-13.230469 0-24 10.769531-24 24v320c0 13.230469 10.769531 24 24 24h176c13.230469 0 24-10.769531 24-24v-104.632812h16v104.632812c0 22.054688-17.945312 40-40 40zm0 0"/><path d="m8 192h208v16h-208zm0 0"/><path d="m163.71875 176c-9.6875 0-18.808594-3.777344-25.65625-10.632812l-71.4375-71.429688c-6.847656-6.847656-10.625-15.953125-10.625-25.648438 0-20.007812 16.273438-36.289062 36.28125-36.289062 9.6875 0 18.808594 3.777344 25.65625 10.632812l71.4375 71.429688c6.847656 6.847656 10.625 15.953125 10.625 25.648438 0 20.007812-16.273438 36.289062-36.28125 36.289062zm-71.4375-128c-11.175781 0-20.28125 9.105469-20.28125 20.289062 0 5.421876 2.113281 10.511719 5.9375 14.34375l71.4375 71.429688c3.832031 3.824219 8.929688 5.9375 14.34375 5.9375 11.175781 0 20.28125-9.105469 20.28125-20.289062 0-5.421876-2.113281-10.511719-5.9375-14.34375l-71.4375-71.429688c-3.832031-3.824219-8.929688-5.9375-14.34375-5.9375zm0 0"/><path d="m102.339844 118.34375 39.996094-39.996094 11.316406 11.3125-40 40zm0 0"/><path d="m163.71875 368c-9.695312 0-18.808594-3.777344-25.65625-10.625l-71.4375-71.4375c-6.847656-6.847656-10.625-15.960938-10.625-25.65625 0-20.007812 16.273438-36.28125 36.28125-36.28125 9.695312 0 18.808594 3.777344 25.65625 10.625l71.4375 71.4375c6.847656 6.847656 10.625 15.960938 10.625 25.65625 0 20.007812-16.273438 36.28125-36.28125 36.28125zm-71.4375-128c-11.175781 0-20.28125 9.105469-20.28125 20.28125 0 5.421875 2.113281 10.511719 5.9375 14.34375l71.4375 71.4375c3.824219 3.824219 8.921875 5.9375 14.34375 5.9375 11.175781 0 20.28125-9.105469 20.28125-20.28125 0-5.421875-2.113281-10.511719-5.9375-14.34375l-71.4375-71.4375c-3.824219-3.824219-8.921875-5.9375-14.34375-5.9375zm0 0"/><path d="m102.335938 310.34375 40-40 11.3125 11.316406-39.996094 39.996094zm0 0"/></svg>