<?xml version="1.0" encoding="utf-8"?>
<!-- Generator: Adobe Illustrator 21.1.0, SVG Export Plug-In . SVG Version: 6.00 Build 0)  -->
<svg version="1.1" id="Layer_1" xmlns="http://www.w3.org/2000/svg" xmlns:xlink="http://www.w3.org/1999/xlink" x="0px" y="0px"
	 viewBox="0 0 1188.1 696.7" style="enable-background:new 0 0 1188.1 696.7;" xml:space="preserve">
<style type="text/css">
	.st0{fill:#3BAEF4;}
	.st1{opacity:0.2;fill:#A7D8E7;enable-background:new    ;}
	.st2{opacity:0.72;fill:#A7D8E7;enable-background:new    ;}
	.st3{fill:#F5EB45;}
	.st4{fill:#FFFFFF;}
	.st5{fill:none;stroke:#F5EB45;stroke-miterlimit:10;}
	.st6{fill:#0596DE;}
	.st7{fill:#003A48;}
	.st8{fill:#1D7B9E;}
	.st9{fill:#1D7B9E;stroke:#F5EB45;stroke-miterlimit:10;}
	.st10{fill:#BC936C;}
	.st11{fill:none;stroke:#0596DE;stroke-width:2;stroke-miterlimit:10;}
	.st12{fill:#F69331;}
	.st13{fill:#4D2211;}
	.st14{fill:#A7D8E7;}
	.st15{fill:#18697F;}
	.st16{opacity:0.69;fill:#A8ADB0;enable-background:new    ;}
	.st17{fill:#92B9C8;}
	.st18{fill:#94999B;}
	.st19{fill:#65696C;}
	.st20{fill:#7CABBE;}
	.st21{fill:#F5852A;}
	.st22{fill:#206D88;}
	.st23{opacity:0.72;}
	.st24{fill:#2190CF;}
	.st25{fill:none;stroke:#A7D8E7;stroke-miterlimit:10;}
	.st26{clip-path:url(#SVGID_2_);}
	.st27{fill:none;stroke:#F5EB45;stroke-width:0.3;stroke-miterlimit:10;}
	.st28{fill:#F5852A;stroke:#1D7B9E;stroke-width:0.5;stroke-miterlimit:10;}
	.st29{clip-path:url(#SVGID_4_);}
	.st30{fill:#A7D8E7;stroke:#2190CF;stroke-width:0.1;stroke-miterlimit:10;}
	.st31{fill:#FFFFFF;stroke:#FFFFFF;stroke-miterlimit:10;}
	.st32{clip-path:url(#SVGID_6_);}
	.st33{opacity:0.72;fill:#FFFFFF;stroke:#2190CF;stroke-width:0.5;stroke-miterlimit:10;enable-background:new    ;}
	.st34{clip-path:url(#SVGID_8_);}
</style>
<title>Homepage Design - SVG</title>
<g>
	<g id="Calque_1">
		<rect x="3.4" class="st0" width="1184.6" height="696.7"/>
		<path class="st1" d="M11.3,514.3c0,0,60.3-104.7,85.3-100.9s28.5-10.4,55.5,4s83.5,0.5,86.6,4.5s0.5,0.5-2.6,1
			c-5,0.7-232.1,103.9-233.5,126.8L0,522.3"/>
		<path class="st2" d="M139.1,229.5c0-3.3-2.4-6.1-5.7-6.6c-0.8-3.6-4.3-5.9-7.9-5.1c-2.1,0.5-3.8,1.9-4.7,3.8
			c-1.1-3.5-4.9-5.4-8.4-4.3c-1.7,0.6-3.2,1.8-4,3.5h-0.7c-4.5,0-8.1,3.6-8.1,8.1c0,4,3,7.4,7,8c0.4,4.5,4.4,7.7,8.9,7.3
			c3-0.3,5.6-2.2,6.7-5c2.6,2.6,6.8,2.5,9.4-0.1c0.8-0.8,1.4-1.9,1.7-3C136.7,235.7,139.1,232.8,139.1,229.5z"/>
		<path class="st3" d="M879.9,232.3c-0.2-2.7-0.4-6.2,1-8.7c2.8-4.9,5.9-1.4,8,1.9c0.2,0.4,1.8-0.1,1.9-0.4
			c1.5-4.2,5.7-14.1,11.5-9.3c3.4,2.8,3.8,8.1,3.5,12.2c0,0.2,1.9,0,1.9-0.5c0.3-5.1-1-13.9-7.8-13.8c-6.2,0.1-9.3,6.9-11.1,11.8
			l1.9-0.4c-1.9-3.1-4.6-6.5-8.5-4.7c-4.5,2-4.7,8.4-4.3,12.5C877.9,233.1,879.9,232.8,879.9,232.3L879.9,232.3z"/>
		<path class="st4" d="M186.6,252.2c1.7-5.9,7.5-5.4,11.6-2.1c2.8,2.2,4.8,5.4,5.5,8.9c0.1,0.4,2,0,1.9-0.5
			c-1.2-7,5.6-10.2,11.7-8.3c5.9,1.9,8.2,7.2,7.5,13c0,0.2,1.9,0.1,1.9-0.5c2.2-17.3-25.5-17.9-23.1-3.7l1.9-0.5
			c-1.8-9-17.2-18.8-20.9-5.9C184.6,252.9,186.4,252.6,186.6,252.2L186.6,252.2z"/>
		<path class="st5" d="M303.2,197.3"/>
		<path class="st5" d="M296.9,244.8"/>
		<path class="st6" d="M288.3,331.7c-14.9,4.5-29.8,9.1-44.7,13.6c-1.6,0.5-2.6,1.7-2.2,3.2c3.6,11.8,5.6,23.2,9.2,35
			c3,9.9,5.6,21.2,11.5,29.5c0.8,1.1,0.8,1.8,2.2,1.3c1.8-0.7,3.6-1.2,5.5-1.7c1-0.3,1.3-0.8,1-1.8c-0.9-2.8-1.7-5.6-2.5-8.4
			c-4.7-15.3-9.3-30.5-14-45.8c-0.5-1.6-0.1-2.3,1.5-2.7c5.9-1.7,11.8-3.5,17.7-5.3c18.2-5.6,36.5-11.1,54.7-16.7
			c1.4-0.4,2.1-0.1,2.5,1.3c3.2,10.6,6.4,21.2,9.6,31.7c2.3,7.5,4.6,14.9,6.8,22.4c0.3,1.2,0.8,1.5,2,1.1c1.5-0.6,3.1-1.1,4.7-1.4
			c1.7-0.4,2.2-1,1.6-2.9c-5.3-21.1-11.2-41.6-17.7-62.8c-0.9-3-2.6-3.8-5.5-2.9L288.3,331.7z"/>
		<path class="st6" d="M293.4,395.1L293.4,395.1c0.8,2.6,1.7,5.2,2.4,7.9c0.4,1.4,1,1.5,2.2,1.1c1.6-0.6,3.2-1.1,4.9-1.5
			c1.6-0.4,2-1,1.5-2.6c-1.5-4.4-2.8-8.9-4.1-13.3c-0.6-1.9,0.1-4,1.7-5.3c1.5-1.1,3.5-1.2,5-0.2c1.2,0.8,2,2,2.4,3.4
			c1.3,4.3,2.6,8.6,3.9,13c0.4,1.3,0.8,1.9,2.2,1.3c1.8-0.7,3.7-1.3,5.6-1.7c1.2-0.3,1.4-0.9,1-2c-1.3-3.9-2.5-7.9-3.6-11.9
			c-0.9-3.3-2.1-6.2-5.1-8.2c-0.9-0.6-1.2-1.7-0.7-2.6c1.1-2.7,0-5.7-2.5-7.1c-3.1-2.1-6.8-3.3-10.5-3.6c-1-0.1-1.3,0.2-1,1.2
			c0.5,1.5,1,3,1.4,4.6c0.1,0.8,0.8,1.4,1.6,1.6c2,0.6,3.2,2.6,2.6,4.7s-2.6,3.2-4.7,2.6c-0.8-0.2-1.5-0.7-2-1.4
			c-1.1-1.4-1-3.4,0.2-4.7c0.5-0.5,0.7-1.4,0.4-2.1c-0.5-1.5-1-3-1.4-4.6c-0.2-0.9-0.5-1.2-1.4-0.5c-3,2.6-5.5,5.5-6.7,9.3
			c-0.9,2.9-0.2,5,2.1,6.7c0.9,0.7,1.3,1.4,0.9,2.4c-1.5,3.5-0.8,6.8,0.5,10.2C292.7,392.6,293,393.9,293.4,395.1z"/>
		<path class="st2" d="M300.1,306.2l-5.4-4.1c-6.2-4.8-12.7-11.2-18.7-14.5c-1.1-0.9-1.5-0.6-1.9,0.6c-0.8,2.7-2.8,5.4-3.7,8.1
			c-2.3,6.9-3.6,13.7-5.9,20.7c2.5-1.7,2.8,1.5,4.4,1.7c0.1-0.4,0.1-0.8,0.3-1.1c0.3-0.9-0.1-2.2,1.1-2.6c1.3-0.3,1.6,1,2.4,1.6
			c0.3,0.2,0.5,0.5,1,0.9c0.2-0.9,0.3-1.7,0.5-2.4s0.1-1.3,0.8-1.6s1.2,0.3,1.6,0.8c0.4,0.4,1.1,1.1,1.9,1.9
			c0.2-1.2,0.3-2.1,0.6-2.9c0.4-1.4,1.1-1.6,2.1-0.6c0.7,0.6,1.3,1.3,2.2,2.2l0.5-2.7c0.1-0.6,0.2-1.3,0.9-1.5s1,0.3,1.5,0.7
			c0.5,0.7,1.1,1.3,1.9,1.7c0.1-0.4,0.2-0.8,0.3-1.1c0.1-0.4,0.1-0.9,0.2-1.3c0.4-1.7,1-1.9,2.3-0.7c0.6,0.6,1.1,1.4,2,1.8
			c0.1-0.6,0.2-1,0.2-1.4s0.1-0.9,0.3-1.3c0.4-1.4,1-1.6,2.1-0.6c0.7,0.6,1,1.5,1.9,1.7C298.7,308.9,297,306.1,300.1,306.2z"/>
		<path class="st6" d="M339.3,380.9L339.3,380.9c-0.5-1.8-1.1-3.5-1.6-5.3c-0.6-2.2-1.2-4.4-3.3-5.8c-0.6-0.4-0.8-1.2-0.4-1.9
			c1.7-3.8-3.8-9.3-9-8.7c-0.2,0-0.3,0.2-0.5,0.3c-3,1.6-5.3,6.6-3.8,9.5c1.3,2.5,1.5,5,2,7.6c1,5.7,3.2,11.2,4.9,16.8
			c0.3,0.9,0.6,1.3,1.6,0.9c3.9-1.2,7.8-2.4,11.7-3.6c1.1-0.3,1.2-0.8,0.9-1.8C340.9,386.4,340.1,383.6,339.3,380.9z"/>
		<path class="st6" d="M273.7,401c0.8,2.6,1.7,5.2,2.4,7.8c0.3,1.3,0.9,1.6,2.1,1.2c3.7-1.2,7.4-2.3,11.1-3.4c1.2-0.3,1.4-0.9,1-2
			c-1.6-5.1-3.2-10.2-4.7-15.3c-0.3-1.4-1.1-2.6-2.2-3.4c-0.8-0.5-1.2-1.5-0.8-2.5c1-4.3-4.8-9.9-9-8.4c-2.5,0.9-3.8,3.3-4.4,5.9
			c-0.5,2.3-0.4,4.5,1.5,6.1c0.8,0.7,1.2,1.3,0.8,2.2c-0.6,1.7-0.5,3.5,0.2,5.2C272.4,396.6,273,398.8,273.7,401z"/>
		<path class="st6" d="M275.5,332.1c0.2-1.2,0.3-2.2,0.6-3.1c0.3-0.9-0.1-2.1,1.1-2.4s1.5,0.8,2.1,1.4c0.6,0.6,1.4,1.4,2.2,2.3
			c0.3-1.7,0.5-3,0.8-4.3c0.3-1.5,1-1.7,2.2-0.6c1,0.9,1.9,1.9,3,3c0.3-1.6,0.5-2.9,0.7-4.1c0.1-0.5,0.2-1.2,0.9-1.4
			c0.7-0.2,1.1,0.3,1.5,0.7c0.9,1.1,1.9,2,3,2.9c0.2-1.4,0.4-2.6,0.6-3.9c0.1-0.6,0.2-1.3,1-1.5s1,0.3,1.4,0.7l2.7,2.8
			c0.6-1.4,0.6-2.8,0.9-4.2s1.1-1.6,2.1-0.6s1.9,1.9,3,3.1c0.3-1.7,0.5-3,0.8-4.3c0.3-1.3,1-1.6,2.1-0.7c1.1,1,1.8,2.1,3.1,3
			c0.2-1.1,0.3-2.1,0.6-3.1c0.2-0.8-0.1-1.9,1-2.2s1.4,0.8,2,1.2c0.1,0,0.2,0,0.3,0c-0.5-3.3-1.8-4.2-4.1-3.5
			c-17.7,5.4-34.3,10.9-52,16.2c-3,0.9-2.4,1.2-1.6,4c0.1,0.3,0,0.7,0.5,0.7c0.1-0.2,0.2-0.3,0.2-0.5c0.2-0.7,0-1.6,1-1.8
			c1-0.2,1.2,0.6,1.7,1c0.8,0.8,1.6,1.6,2.6,2.7c0.3-1.5,0.4-2.6,0.7-3.7c0.1-0.7,0-1.5,0.9-1.8c0.9-0.3,1.3,0.5,1.9,1
			c0.7,0.9,1.6,1.7,2.6,2.4c0.2-1.3,0.4-2.5,0.6-3.7c0.1-0.6,0.1-1.3,0.8-1.6s1.3,0.4,1.8,0.9C273.7,330.1,274.5,331,275.5,332.1z"
			/>
		<path class="st6" d="M283.4,315.2L283.4,315.2l-19.3,5.9c-3.5,1.1-4.8-2.1-2.4,4.8c0.2,0.7,0.3,1.5,1.5,1.2c1.2-0.3,1.1-1,0.7-1.9
			c-0.6-1.6-0.1-2.4,1.5-2.7c0.6-0.1,1.1-0.3,1.6-0.5c1.5-0.7,2.4-0.2,2.7,1.4c0.1,0.5,0.1,1.6,1,1.3s0.3-1.1,0.1-1.6
			c-0.6-1.6-0.1-2.4,1.5-2.7c0.5-0.1,1-0.2,1.5-0.4c1.6-0.7,2.7-0.4,3,1.5c0.1,0.5,0.2,1.3,1,1s0.2-1,0.2-1.5
			c-0.1-0.7-0.8-1.6-0.1-2.1c1.3-0.9,2.9-1.3,4.5-1.4c1.3-0.1,1,1.4,1.5,2.1c0.3,0.5,0.5,1,1.2,0.8c0.8-0.2,0.5-0.8,0.4-1.4
			c-0.2-0.8-0.9-1.7-0.1-2.3c1.4-0.9,3-1.5,4.6-1.5c1.1-0.1,0.9,1.3,1.3,2.1c0.2,0.4,0.2,1.1,1,0.8c0.6-0.2,0.3-0.7,0.2-1.1
			c-0.2-0.8-0.9-1.7-0.2-2.3c1.3-1,2.9-1.5,4.6-1.5c1.2-0.1,1,1.3,1.3,2c0.2,0.4,0.2,1.1,0.9,0.9c0.9-0.2,0.4-0.9,0.3-1.4
			c-0.1-0.7-0.8-1.6-0.1-2.1c1.3-1,3-1.5,4.6-1.5c1.2-0.1,1.2,1.3,1.5,2.1c0.3,0.9,0.6,1,1.4,0.7s1.1-0.6,0.8-1.4
			c-0.3-0.7-0.5-1.4-0.6-2.2c-0.3-1.8-0.1-3.1-1.6-2.7C298.4,309.7,290.3,313,283.4,315.2z"/>
		<path class="st6" d="M304.2,392.8L304.2,392.8c0.5,1.7,1,3.4,1.6,5.1c1.3,4,0.2,3.6,4.6,2.3c1-0.3,1.3-0.7,1-1.7
			c-1.5-4.7-2.8-9.3-4.3-14c-0.3-1.4-1.7-2.4-3.2-2c-0.1,0-0.1,0-0.2,0c-1.5,0.5-2.1,1.8-1.6,3.6
			C302.8,388.3,303.5,390.6,304.2,392.8z"/>
		<path class="st7" d="M301.3,374.2c0.8-0.5,1.5-1.1,1.1-2.3c-0.2-0.9-1.1-1.4-1.9-1.2c0,0-0.1,0-0.1,0c-0.9,0.1-1.5,1-1.4,1.9
			c0,0.1,0,0.2,0.1,0.3C299.2,374,300.2,374.3,301.3,374.2z"/>
		<path class="st7" d="M334.2,315.7c-0.9-0.8-1.4-1.8-2.5-2.4c-0.4,1-0.8,2.2-0.1,2.9S333.2,316.3,334.2,315.7z"/>
		<path class="st7" d="M259.8,338.2c0.8-0.1,1.6-0.4,2.3-0.9c-0.4-0.8-1.1-1.4-1.8-1.9C259.9,336.3,259.7,337.3,259.8,338.2z"/>
		<path class="st7" d="M290.3,326c-0.5,1.3-1,2.2-0.4,3c0.6,0.1,1.2-0.1,1.7-0.4C292.1,327.5,290.7,327.3,290.3,326z"/>
		<path class="st7" d="M308,320.9c-0.4,0.9-0.9,1.9-0.4,2.5s1.4-0.1,2.2-0.4C309.4,322.2,308.8,321.5,308,320.9z"/>
		<path class="st7" d="M313.4,321.9c0.8-0.1,1.7-0.3,2.4-0.8c-0.5-0.8-1.2-1.4-1.9-1.9C313.6,320.1,313.4,321,313.4,321.9z"/>
		<path class="st7" d="M298,326.6c-0.6-0.9-1.3-1.6-2.2-2.1c0.1,1.1-0.4,1.9-0.1,2.8L298,326.6z"/>
		<path class="st7" d="M242.3,340.8c-0.1,1-1,2-0.2,2.7c0.4,0.4,1.9-0.1,1.9-0.6C244.2,342,243.1,341.5,242.3,340.8z"/>
		<path class="st7" d="M278.1,329.9c-0.3,0.9-0.4,1.8-0.3,2.8c0.8,0,1.6-0.3,2.2-0.7C279.5,331.2,278.9,330.5,278.1,329.9z"/>
		<path class="st7" d="M253.7,340.1c1-0.3,2.2-0.2,2.3-0.9c0.1-0.8-0.9-1.3-1.8-2L253.7,340.1z"/>
		<path class="st7" d="M321.9,319.4c-0.5-0.9-1.3-1.6-2.2-2.1c-0.1,1-0.5,2-0.1,2.5C320.1,320.4,320.9,319.5,321.9,319.4z"/>
		<path class="st7" d="M266.2,333.5c-0.1,1.2-0.9,2.1-0.2,2.8c0.4,0.4,1.4-0.1,2.1-0.6C267.7,334.8,267,334.4,266.2,333.5z"/>
		<path class="st7" d="M250.2,341c-0.5-0.7-1.1-1.9-1.8-1.7c-0.6,0.2-0.7,1.5-0.5,2.5C248.7,341.7,249.5,341.5,250.2,341z"/>
		<path class="st7" d="M327.9,317.5c-0.5-0.7-1.2-1.4-2-1.9c-0.4,0.8-0.6,1.7-0.5,2.6L327.9,317.5z"/>
		<path class="st7" d="M301.6,325.5l2.3-0.7c-0.4-0.8-1.1-1.5-1.8-2.1C301.7,323.6,301.5,324.6,301.6,325.5z"/>
		<path class="st7" d="M284.1,328.1c-0.4,0.9-0.6,1.8-0.4,2.8c0.8-0.1,1.6-0.3,2.3-0.8c-0.2-0.3-0.4-0.5-0.6-0.8
			C285,329,284.7,328.7,284.1,328.1z"/>
		<path class="st7" d="M274.2,333.7l-1.9-2c-0.4,0.8-0.6,1.8-0.5,2.7C272.6,334.5,273.5,334.2,274.2,333.7z"/>
		<path class="st7" d="M329.6,341.6c-0.1-0.6-3.8-2.2-4.2-1.9c0,0-0.1,0.1-0.1,0.1c-2.3,2.1-2,3.7,0.7,4.8c0.5,0.2,1.1,1,1.7,0.3
			C328.3,343.9,329,342.8,329.6,341.6z"/>
		<path class="st7" d="M309.5,353.8c-0.9,1.1-1.7,2.3-2.2,3.7c0.1,0.4,3.6,2,4,1.9c0.9-1.1,1.6-2.4,2.1-3.7
			C312.2,354.8,310.9,354.2,309.5,353.8z"/>
		<path class="st7" d="M269.5,356.6c-0.9,1.1-1.7,2.3-2.3,3.6c0,0.4,3.5,2.2,3.9,2.1s2.4-3.4,2.3-3.8
			C272.2,357.7,270.9,357.1,269.5,356.6z"/>
		<path class="st7" d="M285.4,364.4c-0.2-0.6-3.8-2.1-4.1-1.9c-0.1,0.1-0.2,0.2-0.2,0.3c-2.3,2.2-2.1,3.5,0.7,4.7
			c0.5,0.2,1.1,0.9,1.7,0.1C284.2,366.6,284.8,365.4,285.4,364.4z"/>
		<path class="st7" d="M301.4,349.9c-1.2-0.8-2.5-1.4-3.9-1.8c-0.9,1.1-1.6,2.4-2.1,3.7c0.1,0.5,3.6,2.1,4,1.9
			C300.3,352.5,300.9,351.3,301.4,349.9z"/>
		<path class="st7" d="M280.6,359.4c0.9-1.1,1.6-2.4,2.1-3.7c-0.1-0.4-3.7-2-4-1.8c-0.9,1.1-1.6,2.4-2,3.8
			C277.9,358.4,279.2,359,280.6,359.4z"/>
		<path class="st7" d="M289.8,356.6c0.9-1.1,1.7-2.3,2.3-3.6c-1.1-0.9-2.4-1.6-3.7-2c-0.4,0-2.5,3.3-2.4,3.7
			C287.2,355.5,288.4,356.2,289.8,356.6z"/>
		<path class="st7" d="M320.2,344.5c-0.2-0.5-3.7-2.2-4-2.1s-0.3,0.3-0.4,0.4c-2.4,2.6-2.2,3.5,1,4.9c0.5,0.2,1,0.8,1.5,0.1
			C319,346.6,319.6,345.5,320.2,344.5z"/>
		<path class="st7" d="M332.4,349.9c-1.1-0.5-2.1-1-3-1.5s-1.3-0.3-1.8,0.5c-1.9,2.9-1.9,2.9,1.1,4.3c0.5,0.2,1.1,0.9,1.6,0.1
			C331,352.3,331.6,351.1,332.4,349.9z"/>
		<path class="st8" d="M270,364.4c-0.7-0.8-1.7-1-2.5-1.5c-1.1-0.8-1.8-0.5-2.5,0.8c-1.4,2.5-1.4,2.5,1.2,3.7c0.5,0.2,1.1,1,1.6,0.4
			C268.7,366.7,269.4,365.5,270,364.4z"/>
		<path class="st7" d="M310.8,347.4c-0.2-0.7-3.6-2.3-4.1-2c-0.1,0.1-0.2,0.2-0.2,0.3c-2.3,2.3-2.1,3.5,0.8,4.8
			c0.5,0.2,1.1,1,1.6,0.2C309.7,349.5,310.3,348.4,310.8,347.4z"/>
		<path class="st7" d="M323,352.8c-1.3-0.6-2.5-1.3-3.7-1.8c-0.9-0.3-1,0.6-1.3,1.1c-1.7,2.7-1.7,2.7,1.1,3.9c0.5,0.2,1.1,1,1.7,0.3
			C321.6,355.2,322.3,354,323,352.8z"/>
		<path class="st8" d="M298.1,355.7c-1.1-0.8-2.3-1.4-3.6-1.8c-0.2-0.1-0.5,0-0.6,0.3c-0.7,1.1-1.8,2.1-1.7,3.3c0,0.8,1.5,1,2.3,1.4
			c0.5,0.2,1.1,1,1.6,0.4C296.8,358.1,297.5,356.9,298.1,355.7z"/>
		<path class="st8" d="M288.6,358.5c-1.2-0.9-2.5-1.5-3.9-1.8c-0.8,1.1-1.5,2.3-2,3.6c0.1,0.4,3.4,1.9,3.9,1.7
			C287.5,361,288.2,359.8,288.6,358.5z"/>
		<path class="st8" d="M265.1,359.4c0.9-1.1,1.7-2.3,2.2-3.7c-1.2-0.8-2.5-1.4-3.9-1.8c-0.8,1.1-1.6,2.3-2.1,3.5
			C262.5,358.3,263.8,359,265.1,359.4z"/>
		<path class="st7" d="M276.1,367.2c-0.7-0.8-1.6-0.9-2.3-1.4c-1.3-0.8-2-0.6-2.8,0.8c-1.3,2.5-1.4,2.4,1.2,3.6
			c0.6,0.3,1.3,1,1.9,0.3C274.8,369.5,275.5,368.3,276.1,367.2z"/>
		<path class="st8" d="M314.5,353.6c0.4-0.1,2.4-3.4,2.2-3.6c-1.1-0.9-2.3-1.5-3.7-1.9c-0.3-0.1-2.4,3.2-2.4,3.5
			C311.8,352.6,313.1,353.2,314.5,353.6z"/>
		<path class="st8" d="M291.6,345.4c-0.9,1.1-1.7,2.3-2.2,3.7c1.2,0.8,2.5,1.4,3.9,1.8c0.9-1.1,1.6-2.3,2.1-3.5
			C294.3,346.4,293,345.8,291.6,345.4z"/>
		<path class="st8" d="M262.6,368.1c-0.6,0.2-1.9,3.1-1.7,3.7c0.2,0.6,3,2.1,3.6,1.8c0.9-1.1,1.6-2.4,2-3.7
			C265.3,369.1,264,368.5,262.6,368.1z"/>
		<path class="st8" d="M317.1,362.2c0.9-1.1,1.6-2.2,2.2-3.5c0-0.4-3.3-2.1-3.8-1.9c-0.9,1-1.7,2.2-2.2,3.4
			C313.4,360.5,316.6,362.3,317.1,362.2z"/>
		<path class="st8" d="M277.1,365c0.4-0.1,2.2-3.4,2.1-3.7c-1.2-0.8-2.4-1.3-3.7-1.8c-1,1.1-1.7,2.4-2.1,3.7
			C274.5,364.1,275.8,364.7,277.1,365z"/>
		<path class="st8" d="M305.2,356.5c0.9-1.1,1.6-2.4,2.2-3.7c-1.2-0.7-2.6-1.3-4-1.7c-0.9,1.1-1.6,2.4-2,3.8
			C302.6,355.6,303.9,356.1,305.2,356.5z"/>
		<path class="st8" d="M281.8,369.9c-0.2-0.5-3.5-1.8-3.9-1.6c-0.8,1.1-1.5,2.3-1.9,3.6c1.1,0.8,2.4,1.3,3.7,1.7
			C280.1,373.4,281.9,370.2,281.8,369.9z"/>
		<path class="st8" d="M286.1,350.2c-0.1-0.6-3.5-2.2-3.9-2c-0.1,0-0.2,0.2-0.3,0.2c-2.2,2-2,3.5,0.6,4.7c0.5,0.2,1.1,0.9,1.7,0.2
			C284.9,352.3,285.5,351.2,286.1,350.2z"/>
		<path class="st8" d="M302.6,347.9c1-1,1.7-2.3,2.2-3.6c-1.2-0.7-2.4-1.3-3.8-1.8c-1,1.1-1.7,2.3-2.2,3.7
			C300,347,301.2,347.6,302.6,347.9z"/>
		<path class="st7" d="M264,361.4c-1.2-0.9-2.5-1.5-3.9-1.9c-0.6,0.2-1.9,2.8-1.7,3.6c0.2,0.7,2.9,2.2,3.4,2
			C262.7,364,263.5,362.7,264,361.4z"/>
		<path class="st8" d="M326.2,347.2c-1.2-0.8-2.6-1.5-4-1.9c-0.1,0.1-0.2,0.2-0.3,0.3c-2.2,2.1-2,3.6,0.8,4.8c0.5,0.2,1,0.8,1.5,0.1
			C325,349.5,325.6,348.3,326.2,347.2z"/>
		<path class="st8" d="M319.6,336.9c-0.9,1-1.6,2.2-2.1,3.5c0.1,0.4,3.4,2,3.8,1.8c0.9-1.1,1.6-2.3,2.1-3.5
			C322.3,337.8,321,337.2,319.6,336.9z"/>
		<path class="st8" d="M314.2,341.4c-0.9-0.4-1.8-0.8-2.6-1.3c-1-0.6-1.5-0.4-2.1,0.6c-1.7,2.7-1.8,2.7,1.3,4.1
			c0.5,0.2,1,0.9,1.5,0.1C313,343.8,313.7,342.6,314.2,341.4z"/>
		<path class="st8" d="M276.7,353c-0.1-0.5-3.5-2.1-3.9-1.9c-0.1,0-0.2,0.1-0.3,0.2c-0.6,1.1-1.6,2.2-1.7,3.3
			c-0.1,0.7,1.5,1,2.4,1.3c0.5,0.2,1.1,1,1.7,0.2C275.5,355.2,276.2,354.1,276.7,353z"/>
		<path class="st8" d="M289.7,381.1c-0.8-0.8-1.9-1.4-3-1.6c-0.6,0.2-2,2.9-1.9,3.6c0.1,0.5,2.9,2.1,3.5,2S289.9,381.8,289.7,381.1z
			"/>
		<path class="st7" d="M284.2,370.8c-1,1.1-1.8,2.3-2.4,3.7c1.2,0.9,2.5,1.6,4,2c0.4-0.1,1.3-3.6,0.9-4.2
			C286,371.3,285,371.2,284.2,370.8z"/>
		<path class="st8" d="M273,372.5c-0.5-0.1-1.1-0.3-1.6-0.5c-2.9-1.4-3-1.4-4.4,1.5c-0.2,0.4-1,1-0.1,1.4s1.7,1.6,2.7,0.5
			C270.5,374.4,271.6,373.8,273,372.5z"/>
		<path class="st7" d="M268,378.1c-0.1-0.5-2.2-1.6-2.6-1.6c-0.6,0.1-2.1,2.8-1.9,3.5c0.4,1.5,1.9,1.4,3,2L268,378.1z"/>
		<path class="st7" d="M294.2,361.2c-3.1-2.3-3.2-2.3-5,0.8c-0.3,0.5-1.2,1.1-0.2,1.5c0.7,0.3,1.5,1.4,2.5,0.3
			S293.3,362.1,294.2,361.2z"/>
		<path class="st8" d="M322.6,357.5c1.4-0.3,2.9-0.4,4.4-0.2c1.1,0.2,1.4-0.6,1.6-1.2c0.2-0.6-0.6-0.8-1-1c-0.6-0.4-1.3-0.6-1.9-0.9
			s-1-0.3-1.3,0.3C323.8,355.4,323.2,356.4,322.6,357.5z"/>
		<path class="st7" d="M298.6,359.3c1.4,0.2,2.7,0.4,4,0.5c0.7,0.1,1-0.3,1.3-0.9c0.2-0.3,0.1-0.5-0.2-0.8
			C301.5,356.1,299.8,356.4,298.6,359.3z"/>
		<path class="st8" d="M289.2,365.8c-0.4-0.1-0.8-0.2-1.2-0.4c-0.4-0.2-0.8-0.1-1.1,0.3c0,0,0,0.1,0,0.1c-0.4,0.7-0.8,1.4-1.2,2.1
			c-0.2,0.4-0.7,0.8-0.3,1.1c0.5,0.4,1.1,0.6,1.7,0.8C287.4,369.9,289.4,366.5,289.2,365.8z"/>
		<path class="st7" d="M314.6,366.9c0.5-0.8,0.7-1.3,1.1-1.8c0.5-0.7,0.5-1.1-0.4-1.4s-1.7-0.8-2.6-1.2c-0.4-0.2-0.8-0.4-1.1,0.2
			s-0.3,0.8,0.2,1.1C312.9,364.7,313.8,365.8,314.6,366.9z"/>
		<path class="st7" d="M318.6,372.5c-0.7-0.4-1.4-0.7-2.2-1c-0.4-0.1-0.9-0.9-1.2-0.2c-0.3,0.7-1,1.5-0.2,2.2c0.3,0.4,0.7,0.7,1.1,1
			c0.4,0.2,0.7,1.2,1.3,0.5C318,374.3,318.4,373.5,318.6,372.5z"/>
		<path class="st8" d="M331,356.5c-0.5,0.2-0.8,0.6-0.9,1.1c-0.2,0.5,0.2,0.6,0.5,0.8c0.7,0.5,1.5,1,2.2,1.5
			c0.3,0.2,0.6,0.8,1.1,0.2c0.4-0.6,1.2-1.5,0.9-1.8C333.5,357.7,332.3,357.1,331,356.5z"/>
		<path class="st8" d="M267.2,385.9c-0.4,0.5-0.7,1.1-1,1.7c-0.4,0.7-0.2,1.6,0.5,2c0.1,0.1,0.3,0.1,0.4,0.2
			c0.6,0.2,1.3,1.2,1.9,0.4c0.7-0.9,0.2-1.6-0.5-2.3C268,387.2,267.6,386.6,267.2,385.9z"/>
		<path class="st7" d="M290.8,393.5l-1.6-5.2C287.2,390.3,287.8,392.4,290.8,393.5z"/>
		<path class="st8" d="M290.9,395.7c-1.8,1.3-1.3,2.8-0.8,4.3c0.4,1.2,1.4,1.4,2.6,1.6L290.9,395.7z"/>
		<path class="st8" d="M333.9,351.4c-0.7,1.2-2,2.2-1.6,3.2s1.8,1.3,3.1,1.5L333.9,351.4z"/>
		<path class="st8" d="M330.1,339.1l-1.3-4.5C326.2,337.5,326.3,337.9,330.1,339.1z"/>
		<path class="st8" d="M331.4,343c-2.6,3-2.3,3.7,1.4,4.5C332.5,346,332,344.5,331.4,343z"/>
		<path class="st8" d="M318.5,370.1c-0.1-0.8-0.2-1.5-0.3-2.3s0.3-1.6-0.1-2.4C315.2,368.5,315.3,369,318.5,370.1z"/>
		<path class="st7" d="M337.9,364.6c-0.3-1.5-0.7-3-1.4-4.4C334.4,362.6,334.8,363.7,337.9,364.6z"/>
		<path class="st8" d="M338,365.9c-1,0.6-1.3,1.9-0.8,2.9c0,0,0,0.1,0,0.1c0.4,1,0.9,1.6,2.1,1.5L338,365.9z"/>
		<path class="st7" d="M340,371.7c-1.7,2.5-1,4.7,1.6,5.2L340,371.7z"/>
		<path class="st8" d="M341.7,378.8c-1.5,1.2-0.9,2.6-0.4,4c0.2,0.6,0.7,0.6,1.2,0.5s0.5-0.6,0.4-1
			C342.5,381,342.6,379.7,341.7,378.8z"/>
		<path class="st8" d="M306.4,359.2c-0.2,0.3-0.5,0.6-0.7,0.8c-0.1,0.2-0.1,0.4,0.1,0.5c0,0,0.1,0.1,0.1,0.1
			c1.1,0.5,2.2,0.9,3.3,1.4c0.2,0.1,0.5,0.1,0.6-0.1c0,0,0,0,0-0.1c0.1-0.1,0.1-0.5,0.1-0.5C308.8,360.6,307.6,359.9,306.4,359.2z"
			/>
		<path class="st8" d="M320.9,378.4c-0.4-1.2-0.7-2.5-0.6-3.8C318.1,377.1,318.2,377.7,320.9,378.4z"/>
		<path class="st7" d="M269.2,393.2c-1.6,1.9-1.4,2.7,1,3.4L269.2,393.2z"/>
		<path class="st8" d="M324.4,388.7c-0.1-1.2-0.4-2.4-1-3.4C321.6,387.5,321.7,387.8,324.4,388.7z"/>
		<path class="st7" d="M321.5,379.4c-1.7,2.6-1.5,3.2,1.1,3.5L321.5,379.4z"/>
		<path class="st7" d="M279.1,349l-3.1,0.9C278,351.3,278,351.3,279.1,349z"/>
		<path class="st7" d="M322.8,335.6c2.1,1.6,2.4,1.5,2.9-0.9L322.8,335.6z"/>
		<path class="st7" d="M307.1,340.4l-3.1,1C305.6,342.8,306.5,342.4,307.1,340.4z"/>
		<path class="st7" d="M285.4,347c2,1.6,2.2,1.5,2.8-0.9L285.4,347z"/>
		<path class="st7" d="M294.6,344.2c2.4,1.4,2.4,1.4,3.1-0.9L294.6,344.2z"/>
		<path class="st7" d="M316.5,337.5l-3,0.9C315.5,340,315.5,340,316.5,337.5z"/>
		<path class="st7" d="M266.5,352.7c2.4,1.4,2.6,1.4,3-0.9L266.5,352.7z"/>
		<path class="st7" d="M260.4,354.6l-3,0.9C259.2,357,259.3,357,260.4,354.6z"/>
		<path class="st8" d="M271.4,402.7c-0.1-1.2-0.4-2.4-1-3.4C268.7,401.5,268.8,401.9,271.4,402.7z"/>
		<path class="st7" d="M266.7,324.1c-0.6,0.2-1,0.4-0.8,1.2s0.7,0.8,1.3,0.6s1-0.4,0.8-1.2C267.7,323.9,267.3,323.9,266.7,324.1z"/>
		<path class="st7" d="M295.3,315.5c-0.7,0.1-1,0.4-0.8,1.2s0.7,0.8,1.3,0.5s0.8-0.5,0.7-1.1C296.3,315.4,295.9,315.1,295.3,315.5z"
			/>
		<path class="st7" d="M303.6,313.9c-0.1-0.4-0.2-1-0.9-0.7c-0.5,0.2-1.4,0-1.2,1.1c0.2,0.7,0.4,1.1,1.2,0.8
			C303.1,314.9,303.9,314.9,303.6,313.9z"/>
		<path class="st7" d="M280.7,319.9c-0.7,0.1-1,0.4-0.8,1.2s0.7,0.7,1.3,0.5s0.8-0.5,0.7-1.1S281.4,319.6,280.7,319.9z"/>
		<path class="st7" d="M289.5,318.1c-0.2-0.9-0.7-0.6-1.3-0.5s-0.9,0.5-0.7,1.2s0.7,0.7,1.3,0.5S289.8,318.8,289.5,318.1z"/>
		<path class="st7" d="M274.9,322.5c-0.2-0.9-0.7-0.6-1.3-0.5c-0.8,0.2-0.8,0.7-0.6,1.3c0.2,0.6,0.7,0.5,1.2,0.4
			C275,323.6,275.2,323.2,274.9,322.5z"/>
		<path class="st9" d="M273.9,283.8c0,0.1,0.4-0.3,0.2-0.2l-0.4,0.1C273.5,283.8,273.9,284,273.9,283.8l-4.4-14.3
			c0-0.1-0.4-0.1-0.2-0.2l0.4-0.1c0.2-0.1-0.2,0.2-0.2,0.3L273.9,283.8z"/>
		<polygon class="st10" points="347.4,386.7 343.7,387.9 343.7,387.9 347.4,386.7 		"/>
		<path class="st6" d="M376.3,273.9c0,0,16.4,98.5,21.8,104.3c5.4,5.8-24.5-0.3,79.8-12c0,0-14.5-96.9-25.4-104
			C441.6,255.1,376.3,273.9,376.3,273.9z"/>
		<polyline class="st7" points="398.1,309 399.2,316.5 408.1,314.9 406.5,306.5 		"/>
		<polyline class="st7" points="400,324.5 409.3,322.3 410.9,328.3 403.1,330.6 401.1,330.6 		"/>
		<path class="st7" d="M436.5,300l11-2.2c0,0,2.1,6.5,1.6,7.2c-0.5,0.7-10.8,3.6-10.3,2.6"/>
		<polyline class="st7" points="413.7,342.9 412.5,335.5 403.7,337 405.3,345.4 		"/>
		<polyline class="st7" points="428.4,308.6 418.9,310.7 417.3,304.9 425,302.7 427.6,302.7 		"/>
		<path class="st7" d="M420.5,318.1c0,0,8.2-1.6,9.2-1.7c0.9-0.1,3.1,5.8,2.1,6.4s-9.1,2.8-9,2.4S420.5,318.1,420.5,318.1z"/>
		<path class="st7" d="M451,312.5l1.5,6.6c0,0-10.7,2.8-10.7,2.2c0-0.6-2.1-7.1-2.1-7.1"/>
		<path class="st7" d="M444.8,329.4l10.8-3.3c0,0,2.4,5.6,2.2,6.2s-10.4,3.1-10.4,3.1"/>
		<path class="st7" d="M428.8,371.3c0,0-8.5-30.1,1.6-31.8c10.1-1.7,18.4,27.3,17,28.9"/>
		<path class="st3" d="M392.2,288.5c0.2-0.1,0.3-0.1,0.5,0c0.1,0.1,0.2,0.2,0.2,0.3c0,0.2,0,0.5,0,0.7c0,0.3,0,0.6,0.1,0.9
			c0.1,0.7,0.8,1.3,1.5,1.3c1.3,0.1,2.7-0.1,3.9-0.4c1.3-0.3,2.6-0.6,3.8-1.1c0.6-0.2,1.1-0.5,1.6-1c0.3-0.4,0.3-0.9,0.2-1.4
			c-0.1-0.6-0.3-1.1-0.6-1.6c-0.2-0.3-0.3-0.7-0.4-1c0-0.2,0-0.4,0.1-0.5c0.2-0.2,0.4-0.4,0.7-0.4c0.3-0.1,0.6-0.1,0.9,0.1
			c0.2,0.2,0.3,0.4,0.4,0.6c0.1,0.2,0.1,0.7,0.2,1.4s0.2,1.2,0.3,1.6c0.1,0.3,0.1,0.6,0.2,0.9c0,0.2,0,0.4,0,0.6
			c0,0.2-0.1,0.5-0.3,0.6c-0.5,0.6-1.2,1-2,1.3c-1.2,0.5-2.5,0.9-3.8,1.2c-1.3,0.3-2.2,0.5-2.8,0.6c-0.6,0.1-1.2,0.1-1.8,0.1
			c-0.6,0-1.1-0.1-1.6-0.2c-0.5-0.2-0.9-0.4-1.2-0.8c-0.4-0.5-0.7-1.1-0.8-1.7c-0.2-0.6-0.1-1.2,0.2-1.7
			C391.8,288.6,392,288.5,392.2,288.5z M399.2,295c-0.1-0.3,0-0.6,0.1-0.8c0.2-0.3,0.4-0.4,0.7-0.5c0.3-0.1,0.6-0.1,0.8,0.1
			c0.2,0.2,0.3,0.4,0.4,0.7c0.1,0.6-0.2,1.1-0.8,1.2C399.8,295.9,399.3,295.5,399.2,295L399.2,295L399.2,295z"/>
		<path class="st3" d="M408.5,288.8c1.1-0.2,1.5-0.8,1.3-1.8c-0.1-0.6-0.3-1.2-0.7-1.7c-0.2-0.3-0.3-0.5-0.5-0.8
			c-0.1-0.4,0.1-0.7,0.7-0.9c0.8-0.2,1.5,0.7,2,2.8c0.3,0.9,0.2,1.8-0.2,2.6c-0.5,0.7-1.4,1.2-2.2,1.3c-0.6,0.1-1.1,0.2-1.7,0.1
			c-1.7-0.1-2.6-0.2-2.6-0.4c0-0.2,0.1-0.5,0.2-0.7c0.2-0.3,0.3-0.5,0.5-0.5c0.2,0,0.4,0,0.7,0C406.7,289,407.6,289,408.5,288.8z
			 M409,293.6c-0.2-0.8,0.1-1.2,0.8-1.4c0.3-0.1,0.5,0,0.7,0.1c0.2,0.2,0.4,0.4,0.4,0.7c0.1,0.3,0,0.5-0.1,0.8
			c-0.2,0.2-0.4,0.4-0.7,0.4C409.5,294.4,409.1,294.2,409,293.6L409,293.6z M413.4,292.5c0.1,0.6-0.1,1-0.8,1.1
			c-0.5,0.2-1,0-1.1-0.5c0-0.1-0.1-0.2-0.1-0.3c-0.1-0.3,0-0.5,0.1-0.8c0.1-0.2,0.4-0.4,0.7-0.5
			C412.8,291.5,413.2,291.8,413.4,292.5L413.4,292.5z"/>
		<path class="st3" d="M414,287.5c1.1-0.2,1.5-0.8,1.3-1.8c-0.1-0.6-0.3-1.2-0.7-1.7c-0.2-0.3-0.3-0.5-0.5-0.8
			c-0.1-0.4,0.1-0.7,0.7-0.9c0.8-0.2,1.5,0.7,2,2.8c0.3,0.9,0.2,1.8-0.2,2.6c-0.5,0.7-1.4,1.2-2.2,1.3c-0.6,0.1-1.1,0.2-1.7,0.1
			c-1.7-0.1-2.6-0.2-2.6-0.4c0-0.2,0.1-0.5,0.2-0.7c0.2-0.3,0.3-0.5,0.5-0.5c0.2,0,0.4,0,0.7,0C412.2,287.8,413.1,287.8,414,287.5z
			 M415.7,292.1c-0.2-0.8,0.1-1.2,0.7-1.4c0.3-0.1,0.5,0,0.8,0.1c0.4,0.3,0.6,0.9,0.4,1.4c-0.2,0.2-0.4,0.4-0.7,0.4
			C416.2,292.8,415.9,292.6,415.7,292.1L415.7,292.1z"/>
		<path class="st3" d="M417.4,275.8c0.6-0.1,0.9,0.1,1,0.6c0,0.1,0.1,0.9,0.4,2.3c0.2,1.4,0.4,2.5,0.6,3.3c0.6-1.8,2.1-3.2,4-3.5
			c2.1-0.6,4.3,0.5,4.9,2.6c0,0.1,0.1,0.3,0.1,0.4c0.1,0.4,0.1,0.9,0.1,1.4c0,0.5-0.2,0.9-0.4,1.3c-0.8,1.5-3,2.7-6.6,3.5
			c-1.4,0.2-2.9,0.3-4.4,0.3h-0.3h-0.3h-0.3c-0.1,0-0.2,0-0.2,0l-0.2-0.1c-0.1,0-0.1,0-0.2-0.1l-0.2-0.1c-0.1-0.1-0.2-0.2-0.2-0.4
			c-0.1-0.3,0-0.6,0.3-0.7c0,0,0.1,0,0.1,0c0.3-0.1,0.7-0.1,1,0c0.6,0.1,1.3,0.1,1.9,0c-0.4-2.5-0.7-4.4-1-5.8l-1-3.8
			c-0.1-0.2,0-0.5,0.1-0.7C416.8,276,417.1,275.8,417.4,275.8z M420,284.8c0.1,0.5,0.5,0.9,1,1c0.8,0.1,1.6,0,2.4-0.2
			c0.9-0.2,1.8-0.6,2.5-1.2c0.5-0.5,0.8-1.2,0.6-1.9c-0.1-0.7-0.6-1.2-1.1-1.5c-0.7-0.4-1.6-0.4-2.4-0.2c-1,0.2-1.8,0.8-2.4,1.6
			C420.1,283,419.8,283.9,420,284.8L420,284.8z"/>
		<polygon class="st3" points="439.4,272.5 443.8,271.3 447,287.5 442.2,287.5 		"/>
		<polygon class="st3" points="450.1,276.9 451.3,281.3 435.1,284.5 435.1,279.7 		"/>
		<path class="st5" d="M449.2,261.1"/>
		<path class="st5" d="M477.6,364.5"/>
		<path class="st5" d="M477.6,364.9c0,0-11.4-99-29.7-103.8C448,261.1,459.2,247.3,477.6,364.9z"/>
		<path class="st3" d="M682.7,373.5c2.2,39.5,64.5,10.3-71.8,4c-131.5-6.1-69.6,43.5-71.8,4c-1.8-39.7,28.9-73.3,68.6-75.1
			C646.8,304.5,680.1,334.4,682.7,373.5L682.7,373.5z"/>
		<path class="st6" d="M537.3,338.8c-6.4-4.4-14.6-5.6-20.5-10.7c-1.3-1.2-3.2,0.8-1.9,1.9c6.1,5.3,14.4,6.6,21.1,11.1
			C537.4,342.1,538.7,339.8,537.3,338.8z"/>
		<path class="st6" d="M560.3,307.9c-2.9-4.6-6.6-8.4-10.1-12.6c-1.1-1.3-3,0.6-1.9,1.9c3.3,3.9,6.9,7.6,9.7,12
			C558.9,310.8,561.2,309.4,560.3,307.9z"/>
		<path class="st6" d="M674.6,299.7c-3.5,4.7-7.9,8.6-11.8,12.9c-1.2,1.3,0.7,3.2,1.9,1.9c4.1-4.5,8.6-8.6,12.3-13.5
			C678,299.7,675.7,298.3,674.6,299.7z"/>
		<path class="st6" d="M589.8,280c2.1,5.5,3,11.3,4.6,16.9c0.5,1.7,3.1,1.1,2.7-0.6c-1.6-5.9-2.6-11.9-4.8-17.5
			C591.6,277.1,589.2,278.4,589.8,280z"/>
		<path class="st6" d="M630.8,295.6c1.3-5.2,1.5-10.6,2.1-16c0.2-1.8-2.5-1.8-2.7-0.1c-0.5,5.1-0.7,10.3-2,15.3
			C627.8,296.5,630.4,297.3,630.8,295.6z"/>
		<path class="st6" d="M689.1,339.9c7.8,0.1,15.2-3.5,23-2.4c1.7,0.2,2.3-2.4,0.5-2.7c-8.1-1.1-15.7,2.5-23.7,2.4
			C687.2,337.2,687.3,339.9,689.1,339.9z"/>
		<path class="st0" d="M542.8,362c0,0,59.9-4.2,137.3,3.9c62,6.5-84.9,7.2-84.9,7.2L542.8,362z"/>
		<path class="st0" d="M710.2,379.4c-2-1.2-4-2.3-6.2-3.1c0-0.1,0-0.2,0-0.2c0-0.7-0.3-1.3-0.8-1.8c4.6-0.1,9.2-0.6,13.8-1.3
			c1.6-0.3,1.1-2.6-0.4-2.7c-4.6-0.2-9.3,0.1-13.9,0c0-0.4-0.3-0.7-0.7-0.9l-0.3-0.2l0,0c-1.3-0.6-2.7-1-4.1-1.3
			c-0.1-0.4-0.4-0.8-0.9-0.9c-1.4-0.5-2.9-0.9-4.5-1.1c-0.2-0.3-0.6-0.6-1-0.5c-0.1,0-0.2,0-0.3,0c-0.2-0.2-0.5-0.2-0.8-0.2
			c-0.1,0-0.2,0-0.3,0c-0.1,0-0.2,0-0.3,0c-0.6,0-1.2,0-1.7,0c-0.3-0.1-0.6-0.1-0.9-0.1l-0.7-0.1c-1-0.3-2.1-0.4-3.1-0.4h-0.1h0
			c-0.1,0-0.2,0-0.3,0.1l-0.7-0.1l0,0h-0.7c-0.7,0-1.2,0.5-1.3,1.1c0,0,0,0,0,0c-4-0.3-7.9-0.1-11.9,0.6c2.5-0.4-4.8,0.1-5.7,0.1
			c-4.1,0.1-8.2,0.4-12.3,0.2c-8.1-0.3-16.2,0-24.3,0.1s-15.8-1.5-23.8-0.6c-2.9,0.3-5.7,1.1-8.3,2.4c-10.3-0.7-20.6-1.7-30.6-4.3
			c-1.8-0.5-3.7-0.9-5.6-1.2c-0.6-0.5-1.2-0.8-1.9-1.1l0.8,0.3c-0.5-0.2-1-0.4-1.4-0.6l0,0l-0.2-0.1h0.1c-0.6-0.2-1.3-0.4-1.9-0.4
			c-0.8-0.2-1.7-0.3-2.5-0.4c-0.2-0.1-0.4-0.1-0.5-0.1c-0.2,0-0.3,0-0.5,0.1c-0.6-0.1-1.3-0.1-1.9,0c-0.1,0-0.1,0-0.2,0
			c-0.1,0-0.3,0-0.4,0.1c-0.5,0-1.1,0-1.6,0c-1.7,0-3.4,0.1-5.1,0.4c-0.2,0.1-0.5,0.2-0.6,0.4c-0.2,0.1-0.4,0.1-0.6,0.2
			c-0.1,0-0.1,0.1-0.2,0.2c-1,0.2-2,0.5-3,0.9c-2.7,1-5.7,1.5-8.6,2.4c-1.2,0.2-2.4,0.5-3.6,0.8c-0.7,0.2-1.1,1-0.9,1.7
			c0.2,0.6,0.7,1,1.3,1h0.4c0.2,0.1,0.4-0.3,0.7-0.3c0.4,0,0.9-0.6,1.3-0.6l0,0c-2.1,1.4-4.1,1-6.2,1.3c-0.9,0.1-1.1,1.2-0.9,1.9
			c-0.7,0.1-1.3,0.4-2,0.6c-1.6,0.4-1.1,2.6,0.4,2.7c1.4,0.1,2.7,0.1,4.1,0c-0.1,0.2-0.2,0.4-0.3,0.6l-0.4,0.1
			c-0.7,0.2-1.1,1-0.9,1.7c0.2,0.6,0.7,1,1.3,1c1.6,0,3.2-0.1,4.8-0.2c0,0.7,0.5,1.2,1.2,1.2c0,0,0,0,0.1,0c-3.3,3.6-5.3,8.2-5.6,13
			c-0.4,5.5,1.7,10.9,5.6,14.7c4.3,5.8,11.8,8.2,18.7,6c7.4-2.2,14-4.5,19.2-10c5.6,0.9,11.2,1.6,16.8,2.1c17.4,1.8,35.5,3,52.2,4.5
			c3.6,0.3,7.2-0.8,10.1-2.9c6.8,1.3,13.7,2.1,20.5,3c5.7,0.7,11.3,1.4,17,1.8c6.3,0.5,12.3,2.5,18.7,3c8.1,0.6,15.7-6.1,17.8-13.5
			C720.9,392,717.2,383.8,710.2,379.4z"/>
		<path class="st11" d="M13.3,539.7c478-318.4,939.6-144.1,1172.1,0"/>
		<path class="st12" d="M167.2,351.5c2.2-0.3,4.3,0.8,5.1,2.9c2,4.3,2.7,9.1,1.9,13.7c0,0.2,0,0.4,0,0.5c0.1,0.3,0.4,0.6,0.8,0.5
			c0.3-0.1,0.5-0.3,0.5-0.6c0.3,0.7,0,1.6-0.7,2c-0.7,0.3-1.5,0.5-2.3,0.4c0.6,0.6,1.3,1,2.2,1.1c-1.8,1.4-4.4,1.4-6.6,0.7
			c0.1,0.4,0.2,0.8,0.5,1.1c-1.3,0.3-2.7-0.1-3.7-1.1c-0.9-1-1.6-2.1-2.1-3.4c-0.3-0.8-0.5-1.6-0.6-2.4c-0.1-0.9,0-1.9,0.1-2.8
			c0.3-1.7,0.5-3.4,0.6-5.1c0-1.1,0-2.2-0.1-3.3c0-0.5,0-0.9,0.2-1.3c0.1-0.3,0.3-0.6,0.6-0.8C164.5,352.5,165.8,351.8,167.2,351.5z
			"/>
		<path class="st13" d="M179.8,391.7c4.1,3.5,6.8,8.6,9,13.4c2.6,5.6,5,11.2,7.4,16.9c1.1,2.7,2.2,5.3,3.5,7.9
			c0.4,1.1,1.2,2,2.3,2.5c1,0.4,3.1,0,3.6,1c1.1,2-4.4,3-5.5,3.1c-0.2,0-0.4,0-0.6-0.1c-0.1-0.1-0.3-0.2-0.3-0.4l-14.6-25.2
			c-3.3-5.7-6.6-11.4-9.6-17.3c-0.1-0.2-0.2-0.4-0.2-0.6c-0.1-0.8,0.7-1.4,1.4-1.5C176.9,391.5,179.2,391.2,179.8,391.7z"/>
		<path class="st13" d="M176.8,430.2c0.9-0.1,2,1,2.4,1.6c0.6,1-0.6,1.6-0.8,2.7c-0.4,1.9,3.9,4,2.2,5.6c-0.6,0.4-1.4,0.5-2,0.1
			c-2.6-1.3-6.5-3.6-4-7C175.1,432.5,176,430.4,176.8,430.2L176.8,430.2z"/>
		<path class="st14" d="M179.8,391.7c4.1,3.5,6.8,8.6,9,13.4c2.6,5.6,5,11.2,7.4,16.9c1.3,3.1,2.4,6.8,5.1,8.9
			c0.1,0.1,0.2,0.2,0.3,0.3c0,0.1,0,0.3-0.1,0.4c-0.8,1.3-2,2.2-3.5,2.6c-1.8-3.3-3.7-6.6-5.6-9.9l-7.8-13.4
			c-3.3-5.7-6.6-11.4-9.6-17.3c-0.1-0.2-0.2-0.4-0.2-0.6c-0.1-0.8,0.7-1.4,1.4-1.5C176.9,391.5,179.2,391.2,179.8,391.7z"/>
		<path class="st14" d="M182.6,395.3c0.2,0.4,0.4,0.8,0.5,1.3c0.2,1,0.2,2,0,3c0,1.4,0.2,2.9,0.5,4.2c0.6,3.1,1.2,6.3,1.8,9.4
			c0.4,2.4,1.4,4.9,0.9,7.3c-0.6,2.6-1.7,5.1-3.2,7.4c-0.4,0.6-4.3,6.7-4.3,6.7c-1.4-0.5-2.6-1.2-3.7-2.1c-0.1,0-0.1-0.1-0.1-0.2
			c0-0.1,0.1-0.3,0.2-0.3c0.4-0.4,0.7-0.9,1-1.4c1-1.7,1.9-3.4,2.7-5.2c0.9-2.5,2.1-4.7,1.8-7.4c-0.3-1.5-0.7-2.9-1.3-4.3l-2.3-5.6
			c-0.4-1.1-0.9-2.2-1.5-3.2c-0.4-0.6-0.8-1.2-1.3-1.7c-0.5-0.6-1-1.2-1.4-1.9l-0.2-0.3l-0.2-0.3c-1-1.7-1.4-3.8-1.2-5.8
			c0.3-1.9,1.6-3.5,3.4-4.2c1.3-0.5,2.7-0.4,3.9,0.3C180.5,391.9,181.8,393.4,182.6,395.3z"/>
		<path class="st15" d="M179.3,379.8c0.2-0.6,0.6-1.2,1-1.6c0.2-0.2,0.4-0.4,0.6-0.6c0.2-0.2,0.4-0.3,0.7-0.5
			c0.1-0.1,0.2-0.1,0.4-0.1c0.2,0,0.3,0.2,0.4,0.4c0,0.2,0,0.4,0,0.6c-0.1,0.4-0.2,0.9-0.3,1.3c-0.1,0.5-0.3,0.9-0.6,1.4
			c-0.3,0.4-1.3,1.1-1.9,0.9S179.1,380.3,179.3,379.8z"/>
		<path class="st15" d="M182.4,382.1c0,0.2,0,0.5,0,0.7c-0.1,0.8-0.2,1.5-0.4,2.3c-0.1,0.4-0.3,0.9-0.5,1.2
			c-0.2,0.3-0.5,0.6-0.8,0.9c-0.3,0.3-0.7,0.6-1.2,0.8c-0.1,0.1-0.2,0.1-0.4,0.1c-0.7,0.2-1.4,0.1-2.1-0.2c-0.5-0.3-1-0.7-1.3-1.1
			c-0.4-0.5-0.8-1-1.1-1.5c-0.3-0.6-0.6-1.2-0.8-1.8l-0.2-0.6l0,0c-0.2-0.7-0.4-1.4-0.6-2c0-0.1,0-0.1,0-0.2c0-0.1,0.1-0.1,0.1-0.2
			c0.3-0.3,0.7-0.6,1.1-0.8c0.2-0.1,0.5-0.1,0.7-0.1c0.3,0.1,0.5,0.3,0.7,0.6c0.2,0.2,0.4,0.4,0.5,0.6c0.7,0.9,1.4,1.9,2.1,2.9
			l0.1,0.2c0.2,0.3,0.5,0.5,0.8,0.6c0.5,0.1,1,0,1.3-0.4c0.2-0.5,0.3-1.1,0.2-1.6c0-0.5-0.1-0.9-0.1-1.4h1.1c0,0,0.1,0,0.1,0
			c0,0,0.1,0.1,0.1,0.1C182.2,381.4,182.4,381.8,182.4,382.1z"/>
		<path class="st7" d="M176.7,380.2c-0.2,0.2-0.4,0.4-0.5,0.6c-0.2,0.2-0.6,0.6-1,0.9c-0.5,0.4-1,0.8-1.6,1.2l0,0
			c-0.5,0.3-1,0.6-1.6,0.9c-1-1.6-2.1-3.3-3.1-4.9c-0.4-0.6-0.8-1.2-1-1.9c-0.1-0.4-0.2-0.8-0.1-1.1c0-0.7,0.4-1.4,1-1.7
			c0.2-0.1,0.4-0.1,0.6-0.1c0.2,0,0.4,0,0.6,0c0.7,0,1.4,0.2,2.1,0.6c0.5,0.4,1,0.8,1.4,1.3C174.6,377.2,175.7,378.7,176.7,380.2z"
			/>
		<path class="st16" d="M174.6,378.1c0.2,0.5,0.3,1,0.3,1.5c0.1,0.5,0.1,1,0.2,1.6c0,0.2,0,0.3,0.1,0.5c0.2,0.9,0.7,1.7,1.3,2.5
			l0.1,0.2c0.7,0.9,1.3,1.9,1.9,2.8l0.1,0.1l0.6,0.9c-0.7,0.2-1.4,0.1-2.1-0.2c-0.5-0.3-1-0.7-1.3-1.1c-0.4-0.5-0.8-1-1.1-1.5
			c-0.3-0.6-0.6-1.2-0.8-1.8l-0.2-0.6c-0.5,0.3-1,0.6-1.6,0.9c-1-1.6-2.1-3.3-3.1-4.9c-0.4-0.6-0.8-1.2-1-1.9h0.1
			c0.3,0,0.5,0,0.8-0.1c0.3-0.1,0.6-0.3,0.8-0.6c0.1-0.3,0.1-0.7,0-1v-0.1v-0.1c-0.1-0.2-0.3-0.4-0.5-0.6l-0.1-0.1l-0.1-0.1
			c-0.1-0.1-0.1-0.2-0.2-0.3c0.2-0.1,0.4-0.1,0.6-0.1c0.2,0,0.4,0,0.6,0l0,0c0.2,0.2,0.4,0.4,0.6,0.7c0.1,0.2,0.3,0.3,0.6,0.4
			c0.2,0.1,0.5,0.2,0.7,0.3l0,0c0.6,0.3,1.2,0.7,1.8,1.2l0.2,0.2l0.1,0.1v0.1l0.1,0.1c0.1,0.1,0.1,0.2,0.2,0.2
			C174.4,377.5,174.5,377.8,174.6,378.1z"/>
		<path class="st7" d="M188.2,371.2h-0.4c0,0-0.1,0-0.1,0l-3.5,0.1c-0.1,0-0.3,0.2-0.4,0.4l-4.2,9.7c-0.1,0.2-0.1,0.4,0,0.6l2.3,2.6
			l0.1,0.1h0.4c0.1,0.1,0.3,0,0.5-0.3l5.5-12.7C188.3,371.5,188.3,371.3,188.2,371.2z"/>
		<path class="st14" d="M181.8,384.5l-2.3-2.6c-0.1-0.2-0.1-0.4,0-0.6l4.2-9.7c0.1-0.2,0.3-0.5,0.4-0.5l3.5-0.1
			c0.2,0,0.3,0.2,0.1,0.6l-5.5,12.7C182.2,384.6,181.9,384.7,181.8,384.5z"/>
		<path class="st17" d="M187.1,372.6l-4.4,10.1c-0.1,0.1-0.2,0.3-0.3,0.4c-0.1,0.1-0.2,0.1-0.3,0l-2-2c-0.1-0.1-0.1-0.4,0-0.7l3.5-8
			c0-0.1,0.1-0.2,0.1-0.2c0.1-0.1,0.2-0.2,0.3-0.2l2.8,0.1C187.1,372,187.2,372.2,187.1,372.6z"/>
		<path class="st18" d="M180.9,382.1c-0.1-0.1-0.2,0-0.3,0.2c-0.1,0.2-0.1,0.4,0,0.5c0.1,0.1,0.2,0,0.3-0.2
			C181,382.5,181,382.3,180.9,382.1z"/>
		<path class="st19" d="M184.8,371.4c0,0-0.1,0.1-0.1,0.1s0,0.1,0,0.1s0.1-0.1,0.1-0.1S184.9,371.4,184.8,371.4z"/>
		<path class="st19" d="M186.5,371.4h-1.4c0,0-0.1,0-0.1,0.1c0,0.1,0,0.1,0,0.1h1.4C186.3,371.6,186.4,371.6,186.5,371.4
			C186.5,371.4,186.5,371.4,186.5,371.4z"/>
		<path class="st20" d="M182.4,383c-0.1,0.1-0.2,0.1-0.3,0l-2-2c-0.1-0.1-0.1-0.4,0-0.7l3.5-8c0-0.1,0.1-0.2,0.1-0.2L182.4,383z"/>
		<path class="st15" d="M164.5,349.5c1.5-0.4,3.4-0.7,4.8,0s1.8,2.6,2.3,3.9c0.7,1.8,1.2,3.6,1.9,5.4c0.5,1.4,0.9,2.9,1.1,4.5
			c0.2,1.5-0.1,3.1-0.9,4.4c-0.5,0.7-1.1,1.3-1.8,1.9c-0.7,0.5-1.5,1-2.3,1.4c-0.8,0.3-1.7,0.6-2.5,1c-1,0.7-0.3,2.1,0.7,2.3
			c0.2,0,0.3,0,0.5,0h0.2c0.1,0,0.2,0,0.3,0l0,0h0.2h0.1l0,0h0.1l0,0c0.1,0.1,0.2,0.2,0.2,0.4c0,0.2,0,0.5,0,0.7
			c-0.1,0.6-0.4,1.1-0.8,1.5l-0.2,0.3l-0.3,0.3l-0.7,0.8c-0.2,0.3-0.6,0.5-0.9,0.3c-1-0.2-2-0.5-3-0.9c0.4,0.2,0.3-2.4,0.3-2.5
			c-0.2-0.9-0.8-1.8-1.6-2.4c-1.1-0.7-2.4-1.2-3.6-1.6c-4.1-1.7-6.5-6-5.7-10.3c0.3-1.4,0.6-2.7,1-4c0.2-0.9,0.6-1.7,1-2.5
			c0.7-1.1,1.7-2,2.9-2.6c1.1-0.5,2.2-0.9,3.4-1.1C162.3,350.5,163.4,349.9,164.5,349.5z"/>
		<path class="st15" d="M174.7,381.4c0.2,1.1,0.6,2.1,1.3,3l0.1,0.2c0.6,0.8,1.4,2.1,1.9,2.8l0.1,0.1l-8.4,4.6
			c-0.7-1.2-1.5-2.4-2.4-3.5l0,0l-1-1.3l-0.5-0.6l-0.2-0.2l-0.2-0.3l-0.9-1.3l-0.3-0.4l-0.1-0.1c-0.4-0.5-0.7-1.1-1.1-1.7l-0.1-0.2
			l0,0c-0.6-1-1.4-2.1-1.2-3.3c0-0.3,0.1-0.5,0.2-0.7v-0.1c0.3-0.5,0.6-1,0.9-1.4l0.1-0.1l0.1-0.1l0.1-0.1v-0.1
			c0.1-0.2,0.3-0.4,0.4-0.7c0.1-0.4,0.3-0.9,0.5-1.2c0.5-0.4,1.2-0.4,1.8-0.2c0.5,0.1,1.1,0.1,1.6,0c0.2,0,0.5-0.1,0.7-0.1h0.4
			l0.2,0.1h0.1l0,0h0.1l0,0l0.1,0.1h0.1l0,0l0.2,0.1l0,0l0.3,0.2l0.3,0.2h0.1l0.4,0.3l0.1,0.1l0.3,0.2l0.4,0.2l0,0
			c0.7,0.3,1.3,0.7,1.8,1.2l0.2,0.2l0.1,0.1l0.1,0.1l0.1,0.1l0.2,0.2c0.2,0.3,0.3,0.6,0.4,0.9C174.4,379.3,174.6,380.3,174.7,381.4z
			"/>
		<path class="st7" d="M183.5,394.6l-0.9,0.7c-1.8,1.4-3.6,2.6-5.6,3.7c-1.3,0.8-2.7,1.5-4.1,2.2l-0.3,0.1c-0.3,0.2-0.6,0.2-0.9,0.1
			c-0.2-0.1-0.3-0.3-0.4-0.5c-0.4-1.3-0.6-2.5-0.8-3.9c-0.4-2-1-3.9-1.9-5.7c-0.6-1.4-1.4-2.8-2.3-4l-0.1-0.1l-0.5-0.6l-0.2-0.2
			l-0.2-0.3l-0.9-1.3l-0.3-0.4l-0.1-0.1c-0.4-0.5-0.7-1.1-1.1-1.7l-0.1-0.2l0,0c-0.2-0.4-0.4-0.7-0.6-1.1c-0.4-0.7-0.6-1.5-0.6-2.3
			c0-0.2,0.1-0.4,0.1-0.6c0,0,0-0.1,0-0.1c0-0.1,0.1-0.2,0.1-0.3l0.1-0.1c0.1-0.2,0.2-0.4,0.4-0.5l0.2-0.2l0.1-0.2l0,0l0.1-0.1
			l0.1-0.1l0.1-0.1v-0.1l0,0c0.6-0.2,1.3-0.2,1.9,0c0.8,0.3,1.6,0.6,2.4,0.8c0.3,0,0.5,0,0.8-0.1c0.3-0.1,0.6-0.3,0.8-0.6
			c0.1-0.3,0.1-0.7,0-1v-0.1v-0.1c-0.1-0.2-0.3-0.4-0.5-0.6l-0.1-0.1l-0.1-0.1c-0.1-0.1-0.2-0.2-0.2-0.3l0,0l0,0
			c0.2,0,0.4-0.1,0.6-0.1l0,0c0.1,0,0.2,0,0.4,0c0.1,0,0.2,0.1,0.3,0.2c0.2,0.2,0.4,0.4,0.6,0.7c0.1,0.2,0.3,0.3,0.6,0.4
			c0.2,0.1,0.5,0.2,0.7,0.3l0,0c0.6,0.3,1.2,0.7,1.8,1.2l0.2,0.2l0.1,0.1v0.1l0.1,0.1l0.2,0.2c0.2,0.3,0.3,0.6,0.4,0.9
			c0.3,1,0.5,2,0.5,3.1c0.2,1.1,0.6,2.1,1.3,3l0.1,0.1c0.7,0.9,1.3,1.9,1.9,2.8l0.1,0.1C178.5,387.9,183.2,394.7,183.5,394.6z"/>
		<path class="st16" d="M174.5,391.4c0.3,1,0.5,2.1,0.8,3.1c-0.4,0.2-0.8,0.4-1.2,0.5c-0.3,0.1-0.6,0.2-0.9,0.2c-0.3,0-0.5,0-0.8,0
			c-1.7-0.1-3.3-0.8-4.5-2l-0.3-0.3c-0.4-0.4-0.7-0.9-1-1.3c0.3-0.1,0.7-0.1,1-0.1c1.3,0,2.6-0.1,3.9-0.4c0.2,0.2,0.5,0.4,0.8,0.5
			l0.3,0.1c0.2,0,0.4,0,0.6,0h0.1C173.8,391.6,174.1,391.5,174.5,391.4z"/>
		<path class="st15" d="M179.5,383c0-0.5,0.2-0.9,0.5-1.2c0.1-0.1,0.3-0.2,0.5,0c0,0,0,0,0,0c0.5,0.6,1.4,0.9,2.2,0.8
			c0.3,0,0.6-0.1,0.9-0.3c0.2-0.2,0.3-0.7,0.5-1l0.9-2.2c0.1-0.2,0.1-0.3,0.3-0.4c0.2,0.7,0.3,1.4,0.3,2.1c0,0.5,0,0.9,0,1.4
			c0,0.2,0,0.4,0,0.6c-0.1,0.4-0.3,0.8-0.6,1.1c-0.3,0.3-0.6,0.5-1,0.7c-0.3,0.1-0.6,0.2-0.8,0.4c-0.8,0.8-1.5,1.8-1.9,2.8
			c-0.8,1.6-1.9,3-3.1,4.2c-1.4,1.3-3.4,2.8-5.4,2.7c-1.7-0.1-3.3-0.8-4.5-2c-0.5-0.6-1-1.2-1.4-1.9c-1.6-2.5-3-5-4.2-7.7
			c-0.5-0.9-0.8-2-0.9-3c-0.1-0.8,0.2-1.7,0.8-2.3c1-0.9,1.7-0.5,2.4,0.6c1.5,2.3,2.8,4.7,3.9,7.2c0.5,1.3,1.1,2.5,1.8,3.6
			c0.5,0.9,1.4,1.6,2.4,2c1.1,0.1,2.2-0.4,3-1.2c1.2-0.9,2.2-2,3.1-3.2c0.4-0.5,0.6-1.1,0.7-1.6C179.6,384.5,179.5,383.8,179.5,383z
			"/>
		<path class="st7" d="M166.8,380.3l0.1,0.1c0.8,1.9,1.7,3.7,2.6,5.6c-1,0.6-2,1-3,1.4c-0.9,0.3-1.9,0.6-2.9,0.7
			c-0.8-1.8-1.5-3.7-2-5.6c-0.2-0.6-0.3-1.3-0.4-2c0-0.9,0.3-1.7,0.8-2.5c0.1-0.1,0.1-0.2,0.2-0.3c0.1-0.2,0.3-0.3,0.5-0.5
			c0.7-0.3,1.5-0.3,2.1,0.2C165.7,378.2,166.5,379.2,166.8,380.3z"/>
		<path class="st14" d="M170.1,376.5c-0.1,0.9-1.2,1.3-2.2,1.4c-0.2,0-0.5,0-0.7-0.1c-0.5-0.2-1.1-0.4-1.6-0.6
			c-0.7-0.4-1.5-0.6-2.3-0.5h-0.1l0.1-0.1v-0.1l0,0c0.6-0.2,1.3-0.2,1.9,0c0.8,0.3,1.6,0.6,2.4,0.8c0.3,0,0.5,0,0.8-0.1
			c0.3-0.1,0.6-0.3,0.8-0.6c0.1-0.3,0.1-0.7,0-1v-0.1v-0.1c-0.1-0.2-0.3-0.4-0.5-0.6l-0.1-0.1l-0.1-0.1c-0.1-0.1-0.2-0.2-0.3-0.4
			l0,0c0.2,0,0.4-0.1,0.6-0.1c0.2,0.3,0.5,0.7,0.7,1C169.8,375.5,170,375.9,170.1,376.5z"/>
		<path class="st15" d="M179.5,379.1c0.2-0.4,0.5-0.6,0.9-0.7c0.4-0.1,0.8-0.1,1.2-0.1c0.1,0,0.2,0,0.2,0.1c0,0,0,0.1,0,0.1
			c-0.1,0.4-0.3,0.7-0.7,0.8c-0.1,0-0.3,0.1-0.4,0.1c-0.2,0.1-0.4,0.3-0.6,0.6c-0.1,0.2-0.4,1-0.7,1
			C178.9,380.8,179.3,379.4,179.5,379.1z"/>
		<path class="st21" d="M160.5,369.5l-1.4-2.1c0,0.8-1,1.4-1.8,1.1c-0.8-0.4-1.4-1-1.6-1.8c-0.3-0.5-0.4-1-0.4-1.6
			c0-0.7,0.4-1.3,1-1.6c0.7-0.3,1.5-0.2,2.2,0.1c0.3-0.9,0-2,0.4-3.1c0.4-1.3,2.5-3.2,1.4-4.5l-1.2-1.3l2,1c1.1,0.6,3.8-1.5,5-1.8
			c3-0.8,5.6,0.6,7.7,2.7c-0.7-2.4-1.9-5.4-3.7-7.2c-2.7-2.6-6.8-3-10.3-2.4c-4.5,0.9-7.1,3.3-9.6,7.1c-0.4,0.6-0.8,1.2-1,1.9
			c-0.2,0.6-0.2,1.2-0.2,1.8c0,5.9,2.7,11.2,5.7,16.2c0.5,0.7,0.8,1.5,0.9,2.4c0.1,0.9-0.6,1.7-1.5,1.8c0.8,0,1.4,0.6,2.4,0.4
			c0.8-0.2,1.5-0.7,2-1.4c0.1,0.7-0.1,1.4-0.6,1.9c1.8-0.5,3-2.3,2.5-4.2c-0.1-0.2-0.1-0.4-0.2-0.6c0.3,0.7,0.9,1.2,1,2
			c0,0.6-0.3,1.2-0.3,1.9c1.4-0.6,2.3-1.9,2.4-3.4c-0.1-1.1-0.6-2.2-1.3-3.1L160.5,369.5z"/>
		<path class="st8" d="M1090.5,351.3c-1.8,2.3-3.1,4.9-3.6,7.8c-0.9,4.9-2.8,4.9-2.8,4.9s-1.5,1,0.5,2.7c2,1.7-0.8,3.9,1.3,8.1
			c1.4,3,9.4,8,20.5,1.1c0,0,10.1-6.2,8-17.9C1112.2,346.3,1096.1,344.6,1090.5,351.3z"/>
		<path class="st21" d="M1086.5,347.5c0,0,0.5,6.3,13.9,15c0,0-1.3,6.9,0.3,7.4s1.1-5.4,3.8-4.5c2.7,0.9,2,4.4-0.6,6.3
			c1,1.4,2.5,2.5,4.1,2.9c0,0,9.2-3.9,8.6-17.6c0,0,0.3-7.2-12.2-10.5S1094.6,349.6,1086.5,347.5z"/>
		<path class="st8" d="M1105.9,375.9c0,0-3.5,5.6,0.2,10.2c0,0-3.8,4.4-8,3.3c0,0-5.7,0.2-3.4-1.7s1.9-9.1-1.3-10.3
			C1093.5,377.4,1100.2,374.1,1105.9,375.9z"/>
		<path class="st3" d="M989,411.2c-1.7,9.5-3.2,19-4,28.7c0,0.6,0.8,0.6,0.9,0c0.8-9.5,2.3-19,4-28.4
			C990,410.9,989.1,410.7,989,411.2L989,411.2z"/>
		<path class="st3" d="M994,377.1c0.5,10.6,1.5,21.2,2.8,31.7c0.2,1.9,3.2,1.9,3,0c-1.3-10.5-2.3-21.1-2.8-31.7
			C996.9,375.2,993.9,375.2,994,377.1z"/>
		<path class="st8" d="M1036,417.2c0,0,9-14.4,13-3l-3.6,5.5"/>
		<path class="st14" d="M1057.3,419.9c0,0,12.3-27.6,25.8-30.2C1083.1,389.7,1064.5,434.6,1057.3,419.9z"/>
		<path class="st14" d="M1041,418.7c0,0,3.6-9.7,12.7-1.8c0,0,4,2.2,9.8-6s18.3-32.5,31.7-28c0,0,8.5,1.1,9.2-1.6
			c0,0,13.1,4.8-11.5,61.1C1093,442.5,1069.3,426.3,1041,418.7z"/>
		<path class="st21" d="M1076.7,414.8c2.3-2,4.9-4.4,5.9-7.4c0.8-2.4-0.1-5.9-2.7-6.8s-4.2,2.7-5.6,4.2c-2,2.2-4.3,3.9-3.8,7.1
			c0.1,0.4,0.6,0.2,0.6-0.2c-0.5-3,1.8-4.6,3.6-6.6c0.5-0.6,1-1.2,1.5-1.8c0.3-0.5,0.7-0.9,1.1-1.3c0.9-0.9,1.3-1.1,2.6-0.6
			c6.6,2.8-0.6,10.2-3.5,12.8C1076,414.7,1076.4,415.1,1076.7,414.8L1076.7,414.8z"/>
		<path class="st21" d="M1081.8,402.2c2.3-4.5,3.9-9,9.3-10.3c2.3-0.6,2.4-0.4,3.6-2.3c1-1.7,1.3-3.2,3.5-3.9
			c1.3-0.4,2.8-0.3,4.1-0.9c1.6-0.6,2.5-1.4,2.7-3.1c0-0.4-0.6-0.4-0.6,0c-0.5,4.1-6,2.4-8.4,3.9c-0.5,0.3-0.9,0.8-1.1,1.3
			c-1.1,1.7-0.2,2-2.3,3.4c-2.2,1.5-4.7,1.6-6.7,3.6c-2.1,2.2-3.2,5.3-4.6,7.9C1081.1,402.2,1081.6,402.5,1081.8,402.2L1081.8,402.2
			z"/>
		<path class="st21" d="M1080.3,386.2c1.9,0.7-0.3,3.3-1.8,2.6s0.8-2.9,2-2.5c0.4,0.1,0.5-0.5,0.2-0.6c-1.9-0.7-4.6,2.8-2.3,3.7
			c2.2,0.9,4.9-2.8,2.1-3.8C1080.1,385.5,1079.9,386.1,1080.3,386.2L1080.3,386.2z"/>
		<path class="st22" d="M1032.2,411.1l-19.8-4.2c0,0,5.7-32.5-1.7-30.8c0,0-15.9-1.8-15.3,0.4c0,0,0.5,31.4,4.2,34
			s32.3,5.4,32.3,5.4L1032.2,411.1z"/>
		<path class="st7" d="M998.3,377.6c0,0,14.5-1.3,13.8,4.6c-0.7,5.6-1.8,25.1-1.8,25.1l-7.9-0.9"/>
		<path class="st7" d="M1078.2,480.2c0,0,10.6-34.5,15.8-37.7l8.3,5.2c0,0,8.2,0.4-6.1-7.8c-14.2-8.2-49.7-28.4-114.2-32.6
			c0,0-9.3,1.9,7.6,5.2l-4.2,29.1C985.4,441.5,1053.1,470.8,1078.2,480.2z"/>
		<path class="st14" d="M991.7,251.4c23.8,0,43.1,15.3,43.1,34.1c0,9.9-5.3,18.7-13.7,24.9c2.1,5.3,5.1,10.2,8.8,14.5
			c-8.6,0-19.7-1.1-28.2-6.2c-3.3,0.6-6.6,1-10,0.9c-23.8,0-43.1-15.3-43.1-34.1C948.6,266.7,967.9,251.4,991.7,251.4L991.7,251.4z"
			/>
		<g class="st23">
			<path class="st14" d="M1064.2,304.1c-11.8,0-21.4,8.6-21.4,19.1c0.1,5.4,2.6,10.5,6.8,13.9c-1,2.9-2.5,5.6-4.4,8.1
				c4.3,0,9.8-0.6,14-3.5c1.6,0.4,3.3,0.5,5,0.5c11.8,0,21.4-8.5,21.4-19.1C1085.7,312.7,1076.1,304.1,1064.2,304.1z"/>
		</g>
		<path class="st24" d="M961.6,275.2c4.1-4.1,8.1-3.4,12.8-0.9c1.6,0.8,3,2,4.9,2.1c3.3,0.1,5.5-3.2,8.7-3.7c5-0.9,7.8,3.6,12.3,4
			c2.3,0.2,4-1,6.2-1.5c3.5-0.8,9.3,0.6,12.1,3.2c0.1,0.1,0.3-0.1,0.2-0.2c-2.9-2.7-8.6-4.1-12.4-3.2c-2.8,0.6-4.8,2.1-7.7,1.1
			c-1.4-0.6-2.7-1.3-4-2.1c-2-1.1-3.9-1.9-6.2-1.7c-1.7,0.3-3.4,1-4.8,2.1c-4.3,2.8-7,0.7-11-1.2c-4.5-2.2-7.8-1.5-11.2,2
			c0,0.1,0,0.2,0,0.2C961.5,275.3,961.6,275.3,961.6,275.2L961.6,275.2z"/>
		<path class="st24" d="M976.2,286.7c5.7-5.6,6.6,0.6,10.8,0.4c1,0,0.8-0.1,1.6-0.5c2.5-1,1.3-1.6,4.8-1.4c2.4,0.1,4.5,1.8,6.8,1.6
			c1-0.1,1.7-0.7,2.7-0.9c2.7-0.6,5.5,0,7.8,1.6c0.2,0.1,0.3-0.1,0.2-0.3c-2.1-1.6-4.8-2.2-7.4-1.7c-2.7,0.6-2.3,1.6-6.3,0.2
			c-0.7-0.2-1.3-0.8-2-1c-0.8-0.3-1.6-0.5-2.4-0.4c-1.3,0.1-2,0.9-3.2,1.4c-2.9,1.3-4.6,0.1-7.3-0.8s-4.2-0.2-6.1,1.7
			C975.9,286.6,976.1,286.8,976.2,286.7L976.2,286.7z"/>
		<path class="st24" d="M973.5,299.1c5.6-5.3,6.8,0.8,11.4,0.8c2.9,0,3.9-2.6,7.2-2c2.3,0.4,4.2,2,6.5,2.2c1.2,0.1,2.1-0.6,3.3-0.8
			c2.9-0.5,5.8,0.2,8.2,1.9c0.2,0.1,0.4-0.1,0.2-0.2c-2-1.6-4.6-2.4-7.1-2.3c-3,0.3-3.2,1.9-7,0.4c-0.7-0.2-1.2-0.8-1.9-1.1
			c-1-0.6-2.1-0.9-3.2-0.9c-1.5,0-2.2,0.9-3.5,1.4c-3,1.1-4.8,0.1-7.5-1c-2.9-1.2-4.7-0.6-6.9,1.5
			C973.1,299,973.3,299.3,973.5,299.1L973.5,299.1z"/>
		<path class="st6" d="M1028.5,333.7c-23.2-15.2-51.2,16.9-74.2,3.8c-11.5-7.1-17.9-19-19.6-32.6c-2.7-13.5,2.9-22.7-7.8-30.9
			c-24.7-19.2-50.3,16-71.5,1.6c-12.6-8-10.1-26.4-24.8-35.2c-9.5-6.2-25.6-10.6-36.2-10.3c-14.4,1-18.9,6.8-20,14.2
			c-1.7,11.9,5.3,28.3-5.5,36.9c-15,11.5-26.6,4.4-29.2,29.2c-2.2,20.5,8.3,27.7,26.3,31.8c15.9,3.3,24.9-2.1,37.9-6.9
			c13.9-5,29.8-1.7,44.1,4c28.3,9.2,48,34.4,77.9,41.2c24,5.5,32,7.7,51.4-7.6c17.5-15,16.1-10.6,35.2-5.5
			c10.9,1.8,27.3-6.7,24.3-22.2c-4.8-22.8-25-6.4-35.4-4"/>
		<path class="st25" d="M801.4,258.6c0,0,18.3-11.2,25.5,4.9s-6.9,17.6-12.8,20.3c-4.8,2.2-19.9,10.5-24.7-5.6
			S794.3,262.2,801.4,258.6z"/>
		<polyline class="st14" points="792.7,255.4 794.1,254.6 797.1,260 795.4,260.9 		"/>
		<polyline class="st14" points="806.8,248.8 808.6,248 811.1,255 809.7,255.8 		"/>
		<polyline class="st4" points="792.7,269.6 792.7,269.6 798.9,266.6 799.9,268.6 794,271.1 		"/>
		<polyline class="st4" points="795.6,274.7 801,272.4 801.9,273.9 797.2,276.1 		"/>
		<polyline class="st4" points="798.3,279.6 803.1,277.6 803.9,279.5 799.3,281.3 		"/>
		<polyline class="st4" points="803.7,265.3 803.7,265.3 810,262.3 810.9,264.4 805,266.8 		"/>
		<polyline class="st4" points="807.4,276.1 812.8,273.8 813.6,275.3 808.9,277.5 		"/>
		<polyline class="st4" points="805.8,270 810.6,268 811.3,269.8 806.8,271.7 		"/>
		<polyline class="st4" points="822.9,270.5 822.9,270.5 816.5,273.3 815.6,271.2 821.6,268.9 		"/>
		<polyline class="st4" points="820.1,265.3 814.7,267.4 813.8,265.9 818.6,263.8 		"/>
		<polyline class="st4" points="817.5,260.2 812.7,262.1 812,260.2 816.6,258.5 		"/>
		<path class="st4" d="M818.8,283.4c0.4,3.1-1.8,6-4.9,6.3s-6-1.8-6.3-4.9c-0.4-3.1,1.8-6,4.9-6.3
			C815.6,278.1,818.4,280.3,818.8,283.4C818.8,283.4,818.8,283.4,818.8,283.4z"/>
		<g>
			<defs>
				
					<rect id="SVGID_1_" x="809.3" y="281.1" transform="matrix(0.8811 -0.473 0.473 0.8811 -37.7205 418.6291)" width="8.4" height="6.4"/>
			</defs>
			<clipPath id="SVGID_2_">
				<use xlink:href="#SVGID_1_"  style="overflow:visible;"/>
			</clipPath>
			<g class="st26">
				<path class="st21" d="M810.1,286.6c-0.1,0-0.1-0.1-0.2-0.1c0-0.1,0-0.2,0-0.2l0.2-0.6c0-0.2,0.2-0.3,0.4-0.2c0,0,0,0,0,0l0,0
					l2.4,0.8c0.1,0,0.2,0,0.2-0.1c0,0,0,0,0,0l1.7-6l0,0c0.1-0.2,0.2-0.3,0.4-0.2l0.6,0.2c0.2,0,0.3,0.2,0.2,0.4c0,0,0,0,0,0l-2,7.1
					c0,0.1-0.1,0.2-0.2,0.2c-0.1,0-0.2,0-0.2,0L810.1,286.6L810.1,286.6z"/>
			</g>
		</g>
		<path class="st25" d="M789.4,306.9c-0.5,8.6-4.1,13-12.6,13.8c-8.2,0.8-12.9-3.5-14.6-11.2s3.3-15,11.1-15.5
			C781.4,293.5,789.9,299.2,789.4,306.9z"/>
		<path class="st25" d="M783.6,304.2"/>
		<path class="st25" d="M775.2,308l8.7-4L775.2,308z"/>
		<path class="st25" d="M769.7,299"/>
		<line class="st25" x1="770.2" y1="298.4" x2="775.6" y2="308.7"/>
		<ellipse transform="matrix(0.992 -0.126 0.126 0.992 -32.6253 100.1295)" class="st14" cx="775" cy="307.9" rx="1.3" ry="1.3"/>
		<path class="st5" d="M772.5,321.3"/>
		<path class="st14" d="M848.5,296.2l-11.5-4.8c-1-0.4-2.1,0-2.5,1l-9.2,22.2c-0.4,1,0,2.1,1,2.5l11.5,4.8c1,0.4,2.1,0,2.5-1
			l9.3-21.1C850,298.8,849.5,296.6,848.5,296.2L848.5,296.2z M840.5,294.3l3.7,1.5c0.1,0,0.2,0.2,0.1,0.3c0,0,0,0,0,0
			c-0.1,0.1-0.2,0.2-0.3,0.1l-3.7-1.5c-0.1,0-0.2-0.2-0.1-0.3c0,0,0,0,0,0C840.2,294.3,840.3,294.3,840.5,294.3L840.5,294.3z
			 M832.5,318.7c-0.5-0.2-0.7-0.7-0.5-1.2c0.2-0.5,0.7-0.7,1.2-0.5c0.5,0.2,0.7,0.7,0.5,1.2C833.5,318.6,832.9,318.9,832.5,318.7
			C832.5,318.7,832.5,318.7,832.5,318.7z M839.4,319l-12.4-5.5l8.7-19.5l12.4,5.5L839.4,319z"/>
		<path class="st7" d="M1079.6,433.6l12.2-12.5c0,0,1.6-0.7,0.6,1.7c-0.9,2.3-12.7,12.7-12.7,12.7"/>
		<ellipse transform="matrix(0.992 -0.126 0.126 0.992 -33.411 107.4968)" class="st21" cx="832.9" cy="317.8" rx="1.1" ry="1.1"/>
		<path class="st21" d="M1081.2,386.4c2-1.8,5.5-2.9,8.1-3.7c2.2-0.7,4.3-0.2,6.6-0.7c0.4-0.1,0.2-0.7-0.2-0.6c-1.5,0.3-3,0-4.5,0.2
			c-1.3,0.2-2.7,0.7-3.9,1.3c-2.3,0.9-4.6,1.4-6.5,3.1C1080.5,386.2,1080.9,386.6,1081.2,386.4L1081.2,386.4z"/>
		<path class="st5" d="M1089.3,353c0,0-2,3.1-2.2,5.2s-1.3,4.7-1.9,5.2s-2.7,1-1.2,2.6s1.4,1.7,1.3,3.2s-1.7,5.9,3.4,8.4
			c5.1,2.5,6.7,1.8,6.7,1.8c0.4,1.2,0.7,2.4,0.8,3.6"/>
		<path class="st3" d="M1059.5,415.5c0,0,8.1-16.9,18.8-25.2"/>
		<path class="st3" d="M1037,415.8c0,0,1.5-6.2,6.4-6.9c4.9-0.8,5.1,4.7,5.7,5.3S1046.3,403.3,1037,415.8z"/>
		<path class="st5" d="M760.7,338.4"/>
		<path class="st3" d="M751.9,290.3c0,0-5.7,1.8-8.4,9.5s-2.3,14.3-2,15.7c0.3,1.5-1.7,11.6,9.3,20.1c12.4,9.6,23.7,7.4,23.7,7.4
			l8.2-0.4c0,0-23.4,5.6-35.5-3S736.4,310,736.4,310S735,295.8,751.9,290.3z"/>
		<path class="st27" d="M774.2,235.6"/>
		<path class="st3" d="M775.3,240.5c0,0-2.3,6.6-0.5,19.8s-2.1,16.4-2.1,16.4s2.8-10.4,0.1-14.7S773.9,240.9,775.3,240.5z"/>
		<path class="st3" d="M765.5,296.4c0,0-4.7,5.9-4.5,11c0.2,5.1,4.2,10.4,5.4,11.1c2.7,1.8,5.8,2.9,9,3.3c0,0-11,1.1-14.7-9.5
			C760.8,312.2,756.8,302.2,765.5,296.4z"/>
		<path class="st28" d="M894.1,311c0.3,0.6,1.1,0.7,1.6,0.4c0.3-0.2,0.5-0.5,0.5-0.8c0.2-1.4,0.5-2.8,0.7-4.2l2.4,3
			c0.3,0.5,0.8,0.7,1.4,0.5l5.4-1.7c0.6-0.3,0.9-1,0.7-1.6c-0.2-0.6-0.8-0.9-1.4-0.7l-3.9,1.3c-0.3,0.1-0.5,0.2-0.7,0.4
			c-0.1-0.4-0.4-0.8-0.6-1.1l-2.8-3.6c-0.4-0.6-1.1-0.7-1.6-0.3c-0.3,0.2-0.4,0.4-0.5,0.7c-0.2,1.4-0.5,2.7-0.7,4l-6.1-8.6
			c-0.3-0.6-1.1-0.7-1.6-0.4c-0.4,0.2-0.6,0.7-0.6,1.1c-0.1,3.2,1.4,11.6,1.3,14.8c-2.7-4.8-7.2-14.8-9.9-19.6
			c-0.3-0.6-1.1-0.7-1.6-0.4c-0.4,0.2-0.6,0.6-0.6,1.1c0.4,5.7,0.8,11.5,1.2,17.2l-3.8-4.1c-0.8-0.9-1.9,0-2,0.9
			c-0.1,2.3-0.2,4.5-0.3,6.8c0,0.3,0,0.6-0.1,0.9l-3.3,1.1c-0.6,0.3-0.9,1-0.7,1.6c0.2,0.6,0.8,0.9,1.4,0.7l4.1-1.3
			c0.5-0.2,0.8-0.7,0.8-1.2c0.1-1.9,0.2-3.9,0.3-5.8l4.2,4.4c0.5,0.5,1.2,0.4,1.7,0c0.2-0.2,0.4-0.6,0.3-0.9
			c-0.3-5.1-0.7-10.3-1-15.4c2.6,4.5,6.8,14.2,9.4,18.7c0.7,1.1,2.1,0.4,2.2-0.7c0.1-3.4-1.4-12-1.3-15.4l5.7,8.1L894.1,311z"/>
		<path class="st14" d="M1102.1,382.8c-1,0.3-2.5-0.1-3.5-0.2c-0.4,0-0.8,0-1.2,0c0,0-0.1,0-0.1,0h-0.7c-0.2-0.1-0.5-0.1-0.7,0h-0.1
			c-0.3,0-0.6,0-0.9-0.1c-0.1,0-0.3,0-0.4,0.1h-0.2c-0.1,0-0.2,0-0.3,0c-0.2-0.1-0.4-0.1-0.7,0l-0.2,0.1h-0.1l0,0
			c-0.3,0.1-0.6,0.4-0.6,0.7c-0.2,0.4-0.1,0.9,0.3,1.1c0.2,0.1,0.4,0.1,0.6,0.1c0.3-0.1,0.7-0.2,1-0.2c0.1,0,0.2,0,0.3-0.1h0.5
			c0.3,0,0.5-0.1,0.8-0.1c0.9,0,1.8,0,2.7,0c1.3,0,2.7,0.5,4,0.1C1103.5,384,1103.1,382.4,1102.1,382.8z"/>
		<path class="st24" d="M1084.1,371.6c0,0-2.4,5,10.7,8.6c0,0-9.3,1.3-10.9-4.1S1084.1,371.6,1084.1,371.6z"/>
		<path class="st14" d="M200,358.6L200,358.6c-0.3,0.5-0.6,1-0.9,1.5c-0.1,0.1-0.2,0.1-0.3,0.1c-0.1-0.1-0.1-0.2-0.1-0.3
			c0.3-0.5,0.6-1,0.9-1.5c0.1-0.1,0.2-0.1,0.3-0.1C200,358.3,200.1,358.5,200,358.6L200,358.6z M200.8,357.1
			c-0.1,0.1-0.2,0.1-0.3,0.1c-0.1-0.1-0.2-0.2-0.1-0.3c0,0,0,0,0,0c0.3-0.5,0.5-1,0.7-1.6c0-0.1,0.2-0.2,0.3-0.1
			c0.1,0,0.2,0.2,0.1,0.3C201.3,356,201.1,356.6,200.8,357.1L200.8,357.1z M198,361.5L198,361.5c-0.3,0.5-0.7,0.9-1.1,1.4
			c-0.1,0.1-0.2,0.1-0.3,0s-0.1-0.2,0-0.3l0,0c0.4-0.4,0.7-0.9,1.1-1.4c0.1-0.1,0.2-0.1,0.3,0C198,361.3,198.1,361.4,198,361.5
			L198,361.5z M202.2,353.9c-0.1,0.1-0.2,0.2-0.3,0.1c-0.1-0.1-0.2-0.2-0.1-0.3c0.2-0.5,0.3-1.1,0.5-1.6c0-0.1,0.2-0.2,0.3-0.2
			s0.2,0.2,0.2,0.3C202.5,352.8,202.4,353.3,202.2,353.9L202.2,353.9z M195.8,364.2L195.8,364.2c-0.4,0.4-0.8,0.9-1.2,1.3
			c-0.1,0.1-0.2,0.1-0.3,0s-0.1-0.2,0-0.3l0,0c0.4-0.4,0.8-0.9,1.2-1.3c0.1-0.1,0.2-0.1,0.3,0C195.9,363.9,195.9,364,195.8,364.2
			L195.8,364.2z M202.9,350.5c0,0.1-0.1,0.1-0.2,0.1c-0.1,0-0.2-0.1-0.2-0.3c0,0,0,0,0,0c0.1-0.6,0.1-1.1,0.1-1.7
			c0-0.1,0.1-0.2,0.2-0.2c0,0,0,0,0,0c0.1,0,0.2,0.1,0.2,0.2c0,0,0,0,0,0C203.1,349.2,203,349.8,202.9,350.5
			C203,350.4,203,350.5,202.9,350.5L202.9,350.5z M193.4,366.7L193.4,366.7c-0.4,0.5-0.8,0.9-1.3,1.2c-0.1,0.1-0.2,0.1-0.3,0
			s-0.1-0.2,0-0.3l0,0c0.4-0.4,0.9-0.8,1.2-1.2c0.1-0.1,0.2-0.1,0.3,0c0,0,0,0,0,0C193.5,366.5,193.5,366.6,193.4,366.7L193.4,366.7
			z M203,347c0,0.1-0.1,0.1-0.2,0.1c-0.1,0-0.2-0.1-0.2-0.2c0-0.6-0.1-1.1-0.2-1.7c0-0.1,0-0.2,0.2-0.3s0.2,0,0.3,0.2c0,0,0,0,0,0
			c0.1,0.6,0.2,1.2,0.2,1.8C203.1,346.9,203.1,347,203,347L203,347z M202.4,343.6c0,0.1-0.1,0.1-0.1,0.1c-0.1,0-0.3,0-0.3-0.2
			c0,0,0,0,0,0l-0.1-0.3c-0.1-0.5-0.3-0.9-0.5-1.3c0-0.1,0-0.3,0.1-0.3c0.1,0,0.3,0,0.3,0.1l0,0c0.2,0.4,0.4,0.9,0.5,1.4l0.1,0.3
			C202.4,343.5,202.4,343.6,202.4,343.6L202.4,343.6z M201,340.4C201,340.5,201,340.5,201,340.4c-0.2,0.1-0.3,0.1-0.4,0c0,0,0,0,0,0
			c-0.3-0.5-0.6-1-0.9-1.4c-0.1-0.1-0.1-0.2,0-0.3c0.1-0.1,0.2-0.1,0.3,0c0.4,0.5,0.7,1,1,1.5C201.1,340.3,201.1,340.3,201,340.4
			L201,340.4z M199,337.6L199,337.6c-0.1,0.2-0.3,0.2-0.4,0.1c0,0,0,0,0,0c-0.4-0.4-0.7-0.9-1.1-1.4c-0.1-0.1-0.1-0.2,0-0.3
			c0.1-0.1,0.2-0.1,0.3,0.1c0.4,0.5,0.7,0.9,1.1,1.4C199,337.4,199.1,337.5,199,337.6L199,337.6z M197,334.8
			C197,334.8,197,334.9,197,334.8c-0.2,0.1-0.3,0.1-0.4,0c0,0,0,0,0,0c-0.3-0.5-0.6-1-0.8-1.5c-0.1-0.1,0-0.3,0.1-0.3c0,0,0,0,0,0
			c0.1-0.1,0.3,0,0.3,0.1c0,0,0,0,0,0c0.3,0.5,0.5,1,0.8,1.5C197.1,334.6,197,334.7,197,334.8L197,334.8z M195.5,331.7
			c0,0-0.1,0.1-0.1,0.1c-0.1,0-0.3,0-0.3-0.1c0,0,0,0,0,0c-0.2-0.5-0.4-1.1-0.6-1.7c0-0.1,0-0.3,0.2-0.3c0.1,0,0.3,0,0.3,0.1
			c0.2,0.6,0.4,1.1,0.6,1.6C195.5,331.6,195.5,331.6,195.5,331.7L195.5,331.7z M194.4,328.4c-0.1,0.1-0.2,0.2-0.3,0.1
			c-0.1,0-0.1-0.1-0.1-0.2c-0.1-0.6-0.2-1.2-0.3-1.7c0-0.1,0.1-0.2,0.2-0.2c0,0,0,0,0,0c0.1,0,0.2,0.1,0.3,0.2c0,0,0,0,0,0
			c0.1,0.6,0.1,1.1,0.3,1.7C194.5,328.3,194.5,328.3,194.4,328.4L194.4,328.4z M194.1,324.9c0,0.1-0.1,0.1-0.2,0.1
			c-0.1,0-0.2-0.1-0.2-0.2c0-0.6,0-1.2,0.1-1.8c0-0.1,0.1-0.2,0.2-0.2c0,0,0,0,0,0c0.1,0,0.2,0.1,0.2,0.2c0,0,0,0,0,0
			c0,0.6-0.1,1.2-0.1,1.7C194.1,324.9,194.1,324.9,194.1,324.9L194.1,324.9z M194.3,321.5c-0.1,0.1-0.2,0.2-0.3,0.1
			c-0.1,0-0.1-0.1-0.1-0.2c0.1-0.6,0.2-1.1,0.3-1.7c0-0.1,0.2-0.2,0.3-0.2c0.1,0,0.2,0.2,0.2,0.3
			C194.5,320.2,194.4,320.8,194.3,321.5C194.4,321.4,194.3,321.4,194.3,321.5L194.3,321.5z M195.1,318.1c0,0.1-0.2,0.2-0.3,0.1
			s-0.2-0.2-0.1-0.3c0.1-0.2,0.1-0.4,0.2-0.6c0-0.1,0.2-0.2,0.3-0.2c0,0,0,0,0,0c0.1,0,0.2,0.2,0.2,0.3c0,0,0,0,0,0
			C195.2,317.6,195.1,317.8,195.1,318.1L195.1,318.1z"/>
		<g class="st23">
			<path class="st14" d="M201.4,288.7c-5.9-1.2-11.7,2.5-13,8.4c-0.1,0.7-0.2,1.4-0.2,2c0,0,0,0.2,0,0.4c0,0.8,0.1,1.5,0.3,2.3
				c0.6,3,2.2,7.7,6.8,13.4c0.1,0.1,0.3,0.2,0.4,0.3c0.2,0,0.4,0,0.5-0.1c6.5-3.3,10-6.9,11.7-9.4c0.5-0.6,0.9-1.3,1.2-2l0.1-0.3
				c0.3-0.6,0.5-1.3,0.6-2C211,295.7,207.3,289.9,201.4,288.7L201.4,288.7z M207.7,303.1L207.7,303.1l-0.1,0.2l0,0
				c-0.3,0.6-0.6,1.2-1,1.7l0,0c-1.6,2.3-4.7,5.6-10.6,8.6c-4.1-5.2-5.6-9.5-6.1-12.2l0,0c-0.1-0.7-0.2-1.3-0.2-2l0,0
				c0-0.1,0-0.2,0-0.2l0,0c0-0.6,0.1-1.2,0.2-1.8c1.1-5.1,6.1-8.3,11.2-7.3c5.1,1.1,8.3,6.1,7.3,11.2
				C208.2,301.9,208,302.5,207.7,303.1L207.7,303.1z"/>
			<path class="st14" d="M200,295c-2.5-0.5-4.9,1-5.4,3.5c-0.5,2.5,1,4.9,3.5,5.4c2.5,0.5,4.9-1,5.4-3.5c0,0,0,0,0,0
				C204,298,202.4,295.6,200,295z M198.3,302.9c-1.9-0.4-3.1-2.3-2.7-4.2c0.4-1.9,2.3-3.1,4.2-2.7c1.9,0.4,3.1,2.3,2.7,4.2
				c0,0,0,0,0,0C202.1,302.1,200.2,303.3,198.3,302.9z"/>
		</g>
		<g>
			<defs>
				
					<rect id="SVGID_3_" x="142" y="289.7" transform="matrix(0.4736 -0.8807 0.8807 0.4736 -186.0596 294.8362)" width="23.2" height="26.8"/>
			</defs>
			<clipPath id="SVGID_4_">
				<use xlink:href="#SVGID_3_"  style="overflow:visible;"/>
			</clipPath>
			<g class="st29">
				<path class="st30" d="M152.2,290.2c-0.5-1.1-1.4-1.9-2.5-2.3c-1-0.2-2.1,0.1-2.9,0.9c-0.5,0.5-0.8,1.1-0.9,1.8
					c-0.5,0.3-1,0.8-1.2,1.4c-0.2,0.4-0.3,0.9-0.3,1.4c-0.7,0.5-1.2,1.2-1.4,2c-0.1,0.3-0.1,0.6-0.1,0.9c-1,0.4-1.7,1.3-1.9,2.3
					c-0.1,0.3-0.1,0.7-0.1,1c-0.7,0.6-1.2,1.3-1.5,2.1c-0.2,0.3-0.3,0.7-0.3,1.1c-0.5,0.4-0.8,1-0.9,1.6c-0.4,1.8,0.3,5,2.8,4.1
					c0.3-0.1,0.6-0.3,0.9-0.5c0.1,0.5,0.4,0.9,0.8,1.2c0,0.1,0,0.1,0.1,0.2c2.5,2.1,5.2,3.8,8.2,5c2.2,1.1,4.3,2.5,6.8,2.5
					c3.9,0,5.9-5.1,7.6-7.9s5.1-7.1,2.6-10.4c-1.6-2.1-4.8-3.5-7-4.7c-2.7-1.6-5.6-2.9-8.6-4L152.2,290.2z M147.5,289.4
					c0.5-0.5,1.3-0.7,2-0.5c0.4,0.1,0.8,0.4,1.1,0.7c0.2,0.2,0.4,0.5,0.5,0.7c-0.6,0.2-1.1,0.6-1.5,1.1c-0.7-0.7-1.6-1.1-2.6-1.1
					C147.1,290,147.3,289.7,147.5,289.4L147.5,289.4z M146.8,291.3h0.1c0.8-0.1,1.4,0.5,2,0.9l-0.5,0.7
					C147.8,292.4,147,292.1,146.8,291.3L146.8,291.3z M145.5,292.4c0.1-0.3,0.3-0.5,0.6-0.7c0.3,0.8,1.1,1.4,2,1.6l-0.5,0.7
					c-0.6-0.6-1.5-0.9-2.3-0.8C145.3,292.9,145.3,292.6,145.5,292.4L145.5,292.4z M145.3,294.1c0.6-0.1,1.2,0.3,1.7,0.7
					c-0.2,0.2-0.3,0.5-0.5,0.7C145.9,295.2,145.5,294.7,145.3,294.1L145.3,294.1z M143.9,295.6c0.1-0.4,0.3-0.8,0.6-1.1
					c0.3,0.8,0.9,1.3,1.6,1.6c-0.2,0.3-0.4,0.6-0.6,1c-0.5-0.4-1.2-0.7-1.9-0.7C143.8,296.1,143.8,295.8,143.9,295.6L143.9,295.6z
					 M143.7,297.3c0.5,0.1,1,0.4,1.3,0.7c-0.1,0.2-0.2,0.4-0.3,0.6C144.1,298.5,143.7,297.9,143.7,297.3L143.7,297.3z M141.9,298.9
					c0.1-0.6,0.5-1.1,1-1.5c0.2,1,0.6,1.9,1.5,1.9l-0.2,0.4c0,0.1-0.1,0.2-0.1,0.3c-0.6-0.6-1.4-0.9-2.2-0.7
					C141.9,299.1,141.9,299,141.9,298.9L141.9,298.9z M141.8,300.3l0.1-0.1c0.8-0.4,1.2,0.2,1.6,0.8l-0.4,0.7
					C142.3,301.8,141.9,301.1,141.8,300.3L141.8,300.3z M140.3,302.3c0.2-0.5,0.5-0.9,0.8-1.3c0.3,0.9,0.9,1.6,1.8,1.4
					c-0.1,0.3-0.3,0.6-0.4,1c-0.6-0.6-1.4-0.9-2.3-1C140.2,302.4,140.2,302.3,140.3,302.3L140.3,302.3z M140,304.8
					c-0.1-0.4-0.2-0.9-0.1-1.3l0.1,0c0.3-0.1,0.7-0.1,1,0.1c0.4,0.2,0.8,0.5,1.1,0.8c-0.1,0.4-0.2,0.7-0.3,1
					C141.1,305.6,140.3,305.5,140,304.8L140,304.8z M140.4,307.8c-0.3,0.1-0.6-0.1-0.8-0.3c-0.5-0.6-0.6-1.4-0.5-2.2
					c0-0.1,0-0.2,0-0.3c0.3,1,1.4,1.6,2.4,1.2c0.1,0,0.1,0,0.2-0.1c-0.1,0.4-0.1,0.8-0.1,1.2C141.2,307.6,140.8,307.8,140.4,307.8
					L140.4,307.8z M164.6,298c2.5,1.6,3.4,3.2,2.1,6c-0.8,1.6-1.6,3.1-2.6,4.6c-1.7,2.7-3.4,7.5-7.3,7.1c-2.3-0.2-4.8-2.1-6.9-3.1
					c-1.2-0.6-2.4-1.2-3.6-1.8c1.4-1.1,3.2-6.6,3.6-7.5c1-2.2,2-4.5,3.1-6.7c0.4-0.8,0.8-1.5,1.3-2.3c0.3-0.4,0.6-0.7,0.9-1
					c0.2,0.1,0.5,0,0.6-0.2C158.9,294.6,161.8,296.2,164.6,298L164.6,298z"/>
			</g>
		</g>
		<path class="st12" d="M160.4,308c-0.6,0.9-1.1,1.8-1.5,2.7c-0.9-2.8-2.8-6.2-5.6-5.9c-3.1,0.3-2.8,5.2-0.2,6.1
			c0.4,0.1,0.8-0.5,0.4-0.8c-0.9-0.6-1.4-1.7-1.2-2.8c0.2-1.4,1.7-1.5,2.6-0.7c1.6,1.7,2.7,3.8,3.1,6.1c0.1,0.6,1,0.6,1.3,0.1
			c0.8-1.4,1.6-2.8,2.3-4.3c0.2-0.3,0-0.7-0.3-0.9C160.9,307.5,160.6,307.7,160.4,308L160.4,308z"/>
		<path class="st12" d="M158.3,298.9c-1.1,0.2-1.5,1.4-1.5,2.5l-1.2-0.7c0.6-0.8,1-1.8,1-2.9c0-0.2-0.2-0.4-0.4-0.4
			c-0.1,0-0.3,0.1-0.3,0.2c-0.6,1-1.1,2-1.7,3c-0.2,0.3-0.1,0.7,0.3,0.9c1,0.5,1.9,1.1,2.9,1.6c0.3,0.2,0.7,0.1,0.9-0.3
			c0.1-0.1,0.1-0.2,0.1-0.4c-0.1-0.6-0.4-2.1,0.5-2.3c0.7-0.2,1.6,0.4,2.1,0.8c0.7,0.5,1.2,1.2,1.5,2c0.3,0.9-0.8,1-1.4,1.2
			c-0.3,0.1-0.5,0.5-0.4,0.8c0.1,0.3,0.3,0.5,0.6,0.4c1.3,0.1,2.5-0.8,2.6-2.2c0.1-1.3-1.1-2.5-2-3.3
			C160.8,299.1,159.6,298.7,158.3,298.9L158.3,298.9z"/>
		<path class="st14" d="M178.3,315.8L178.3,315.8c-0.5-0.4-1-0.8-1.6-1.1c-0.1-0.1-0.3,0-0.4,0.1c-0.1,0.1-0.1,0.3,0,0.4
			c0.5,0.3,1,0.7,1.5,1.1c0.1,0.1,0.3,0,0.4-0.1C178.4,316.1,178.4,315.9,178.3,315.8C178.3,315.8,178.3,315.8,178.3,315.8z
			 M179.7,317c-0.1-0.1-0.3-0.1-0.4,0.1c-0.1,0.1-0.1,0.3,0,0.4c0.5,0.4,0.9,0.9,1.3,1.3c0.1,0.1,0.3,0.1,0.4,0c0,0,0,0,0,0
			c0.1-0.1,0.1-0.3,0-0.4C180.6,318,180.2,317.5,179.7,317L179.7,317z M175.1,313.7L175.1,313.7c-0.5-0.3-1.1-0.6-1.7-0.9
			c-0.1-0.1-0.3,0-0.4,0.1c-0.1,0.1-0.1,0.3,0.1,0.4c0,0,0,0,0,0c0.6,0.3,1.1,0.6,1.7,0.9c0.1,0.1,0.3,0,0.4-0.1
			C175.3,314,175.2,313.8,175.1,313.7C175.1,313.7,175.1,313.7,175.1,313.7L175.1,313.7z M182.3,319.8c-0.1-0.1-0.2-0.1-0.3,0
			c-0.1,0.1-0.2,0.3-0.1,0.4c0.4,0.5,0.7,1,1.1,1.6c0.1,0.1,0.2,0.1,0.4,0c0,0,0,0,0,0c0.1-0.1,0.2-0.3,0.1-0.4
			C183.1,320.8,182.7,320.3,182.3,319.8L182.3,319.8z M171.7,311.9L171.7,311.9c-0.6-0.3-1.2-0.5-1.8-0.8c-0.2,0-0.3,0-0.4,0.2
			c-0.1,0.1,0,0.3,0.1,0.4c0,0,0,0,0,0c0.6,0.2,1.2,0.5,1.8,0.8c0.1,0.1,0.3,0,0.4-0.2C171.9,312.2,171.8,312,171.7,311.9
			L171.7,311.9z M184.3,323.1c-0.1-0.1-0.2-0.1-0.3,0c-0.1,0.1-0.2,0.2-0.1,0.4c0.3,0.6,0.5,1.2,0.7,1.8c0,0.1,0.2,0.2,0.3,0.2
			c0,0,0,0,0.1,0c0.1-0.1,0.2-0.2,0.2-0.4C184.9,324.4,184.6,323.8,184.3,323.1L184.3,323.1z M168.2,310.5L168.2,310.5
			c-0.6-0.2-1.3-0.4-1.9-0.6c-0.2,0-0.3,0.1-0.4,0.2c-0.1,0.1,0,0.3,0.1,0.3c0,0,0,0,0,0c0.6,0.2,1.2,0.4,1.8,0.6
			c0.2,0,0.3,0,0.4-0.2C168.3,310.8,168.3,310.6,168.2,310.5L168.2,310.5z M185.5,326.9c-0.1,0-0.2,0-0.2,0
			c-0.2,0.1-0.2,0.2-0.2,0.4c0.1,0.7,0.2,1.3,0.3,2c0,0.1,0.1,0.2,0.2,0.2c0,0,0.1,0,0.1,0c0.2,0,0.3-0.2,0.2-0.3
			c-0.1-0.7-0.2-1.4-0.3-2.1C185.6,327,185.6,326.9,185.5,326.9L185.5,326.9z M185.9,331c-0.1,0-0.1,0-0.2,0c-0.2,0-0.3,0.2-0.3,0.3
			c0,0.1,0,0.2,0,0.4c0,0.6-0.1,1.2-0.1,1.8c0,0.1,0,0.2,0.2,0.3c0,0,0.1,0,0.1,0c0.2,0,0.3-0.1,0.3-0.3c0.1-0.6,0.1-1.2,0.1-1.8
			c0-0.1,0-0.2,0-0.4C186,331.2,185.9,331.1,185.9,331L185.9,331z M185.3,335.3c0,0-0.1,0-0.1,0c-0.2,0-0.3,0.1-0.3,0.3
			c-0.2,0.7-0.4,1.4-0.6,2.1c-0.1,0.1,0,0.3,0.1,0.3c0,0,0,0,0,0c0.2,0,0.3-0.1,0.4-0.2c0.2-0.7,0.5-1.4,0.6-2.2
			C185.5,335.5,185.4,335.4,185.3,335.3L185.3,335.3z M183.9,339.6L183.9,339.6c-0.2,0-0.4,0.1-0.4,0.2c-0.3,0.7-0.5,1.4-0.8,2.1
			c-0.1,0.1,0,0.3,0.1,0.3c0,0,0,0,0.1,0c0.2,0,0.3-0.1,0.4-0.2c0.2-0.7,0.5-1.4,0.8-2.1C184,339.8,184,339.7,183.9,339.6
			L183.9,339.6z M182.5,343.8c0,0-0.1,0-0.1,0c-0.2,0-0.3,0.1-0.3,0.3c-0.2,0.7-0.3,1.4-0.5,2.2c0,0.1,0.1,0.2,0.2,0.3c0,0,0,0,0,0
			c0.2,0,0.3-0.1,0.3-0.3c0.1-0.7,0.3-1.4,0.4-2.1C182.6,344,182.6,343.9,182.5,343.8L182.5,343.8z M181.8,348.1c-0.1,0-0.1,0-0.2,0
			c-0.2,0-0.3,0.1-0.3,0.3c-0.1,0.7-0.1,1.4-0.1,2.2c0,0.1,0.1,0.2,0.2,0.2c0,0,0,0,0.1,0c0.2,0,0.3-0.2,0.3-0.3
			c0-0.7,0.1-1.4,0.1-2.1C181.9,348.3,181.9,348.2,181.8,348.1z M181.7,352.4c-0.1,0-0.1,0-0.2,0c-0.2,0-0.3,0.2-0.3,0.4
			c0,0.7,0.1,1.4,0.2,2.1c0,0.1,0.1,0.2,0.3,0.2c0,0,0,0,0.1,0c0.1-0.1,0.2-0.2,0.2-0.4c-0.1-0.7-0.2-1.3-0.2-2
			C181.7,352.5,181.7,352.4,181.7,352.4L181.7,352.4z M182.3,356.4c-0.1-0.1-0.2-0.1-0.3,0c-0.1,0.1-0.2,0.2-0.2,0.4
			c0.2,0.6,0.4,1.3,0.6,1.9c0.1,0.1,0.2,0.2,0.3,0.1c0,0,0,0,0,0c0.1-0.1,0.2-0.2,0.2-0.4c-0.2-0.6-0.4-1.3-0.6-1.9
			C182.4,356.5,182.4,356.4,182.3,356.4L182.3,356.4z M183.8,360.1c-0.1-0.1-0.2-0.1-0.3,0c-0.1,0.1-0.2,0.3-0.1,0.4
			c0.3,0.6,0.6,1.2,0.9,1.7c0.1,0.1,0.2,0.1,0.3,0c0,0,0,0,0,0c0.1-0.1,0.2-0.3,0.1-0.4C184.4,361.2,184.1,360.6,183.8,360.1
			C183.8,360.1,183.8,360.1,183.8,360.1L183.8,360.1z M185.7,363.4c-0.1-0.1-0.2-0.1-0.3,0c-0.1,0.1-0.2,0.3-0.1,0.4l0.4,0.6
			c0.1,0.1,0.2,0.1,0.4,0c0,0,0,0,0,0c0.1-0.1,0.2-0.3,0.1-0.4L185.7,363.4L185.7,363.4z"/>
		<path class="st14" d="M365.8,276.4c-3,0.5-5.9,1.3-8.9,1.3c-0.4,0-0.8,0.3-0.8,0.8c0,0.4,0.3,0.8,0.8,0.8c3.2-0.1,6.2-0.9,9.3-1.4
			C367.2,277.7,366.8,276.2,365.8,276.4z"/>
		<path class="st14" d="M371,269c-5.4-0.9-10.2-4.7-15.2-6.8c-0.9-0.4-1.3,1.1-0.4,1.4c5,2.1,9.8,5.9,15.2,6.8
			C371.5,270.6,372,269.2,371,269z"/>
		<path class="st14" d="M369.4,256.1c1.3,3.8,4.3,6.3,6.5,9.5c0.5,0.8,1.9,0,1.3-0.8c-2.1-3.1-5.2-5.5-6.4-9.1
			C370.5,254.8,369.1,255.2,369.4,256.1L369.4,256.1z"/>
		<path class="st3" d="M187.8,371c0,0,0.6,0.2,0.5,0.6s-1.4,3.1-1.4,3.1l-1,1.3"/>
		<path class="st3" d="M185.2,378.8l0.1,0.2c0.3,1.4,0.3,2.8,0.1,4.2c-0.1,0.6-0.9,1.2-1.1,1.3C184.3,384.4,187.3,383,185.2,378.8z"
			/>
		<path class="st3" d="M182.9,395c0,0,6.1,9,8.7,16.4C191.6,411.5,184.6,394.5,182.9,395z"/>
		<path class="st3" d="M275.1,287l25,19.1C300.1,306.2,278.2,284.3,275.1,287z"/>
		<path class="st3" d="M335.1,318c0,0,3-0.9,4.5,4.3c7,24.8,6.1,25.3,16.7,63.5"/>
		<path class="st2" d="M1070.7,253.1c-0.8,4.9,2.1,9.6,6.9,11.2c0.3,5.6,5,9.8,10.6,9.6c3.3-0.2,6.3-1.9,8-4.7
			c0.9,5.5,6,9.2,11.5,8.4c2.7-0.4,5.2-2,6.7-4.2c0.3,0.1,0.6,0.1,1,0.2c6.7,1,13-3.6,14-10.3c0.9-6-2.7-11.8-8.5-13.6
			c0.4-6.8-4.7-12.6-11.5-13c-4.6-0.3-8.9,2-11.2,5.9c-3.3-4.5-9.6-5.4-14.1-2.1c-1.4,1.1-2.5,2.5-3.2,4.1
			C1075.8,244.6,1071.5,248.2,1070.7,253.1z"/>
		<path class="st3" d="M1070.7,252.9c0,0,0.8,8.6,6.8,11.3C1072.8,262.8,1069.8,257.9,1070.7,252.9z"/>
		<path class="st3" d="M1077.6,264.3c0,0,3.9,18.5,18.6,4.9C1096.1,269.2,1082.1,278.7,1077.6,264.3z"/>
		<g class="st23">
			<path class="st31" d="M85.8,332.2c0.7-0.8,1.4-1.5,2.2-2.1c0.9-0.9,2.1-1.4,3.4-1.4c0.9,0.1,1.7,0.5,2.2,1.2
				c0.9,1.1,1,2.7,0.2,3.9l0,0c1.1-0.3,2.2,0,2.9,0.8c0.9,0.7,1.8,1.4,2.8,2l-1.3,1c-0.9-0.5-1.7-1-2.5-1.7
				c-1.3-1.1-2.2-1.2-3.4-0.3l-1.2,0.9l3.3,4.1l-1.2,1L85.8,332.2z M90.5,335.5l1.3-1c1.3-1.1,1.6-2.4,0.7-3.5s-2.3-1-3.6,0
				c-0.4,0.3-0.8,0.7-1.2,1.1L90.5,335.5z"/>
			<path class="st31" d="M93.4,326.1c0.8-0.8,1.6-1.6,2.5-2.3c1.3-1.2,3-1.9,4.8-1.9c1.6,0.1,3.1,1,4.1,2.3c1.2,1.3,1.8,3.1,1.6,4.8
				c-0.4,1.9-1.5,3.6-3.1,4.8c-0.7,0.6-1.5,1.2-2.3,1.7L93.4,326.1z M101.4,333.5c0.5-0.3,0.9-0.6,1.3-0.9c2.6-2.1,2.9-4.7,0.8-7.3
				c-1.8-2.3-4.2-2.7-6.8-0.6c-0.5,0.4-0.9,0.8-1.3,1.3L101.4,333.5z"/>
			<path class="st31" d="M112.4,326.2l-10.8-7l1.3-1.1l5.3,3.5c1.4,1,2.7,1.8,3.9,2.8l0,0c-0.6-1.3-1.2-2.8-1.8-4.4l-2.2-6l1.3-1.1
				l4.3,12.2L112.4,326.2z"/>
		</g>
		<g>
			<defs>
				
					<rect id="SVGID_5_" x="54.9" y="305.3" transform="matrix(0.7804 -0.6252 0.6252 0.7804 -190.5441 136.5299)" width="88.5" height="68.5"/>
			</defs>
			<clipPath id="SVGID_6_">
				<use xlink:href="#SVGID_5_"  style="overflow:visible;"/>
			</clipPath>
			<g class="st32">
				<path class="st33" d="M61.9,325.5l32.2-25.8c10-8,23.8-7.4,30.8,1.3l7.8,9.7c3.1,3.6,18.6,22,15.9,31.1
					c-0.2,0.8-0.8,1.4-1.6,1.7c-0.7,0.3-1.5,0.3-2.2-0.1c-3.1-2-12.4-6.4-17.5-2.3L95,366.9c-10,8-23.8,7.4-30.8-1.3l-7.8-9.8
					C49.5,347.1,51.9,333.5,61.9,325.5L61.9,325.5z M68.2,362.5c5.5,6.9,16.3,7.3,24.2,1.1l32.2-25.8c6.1-4.9,14.4-2.5,19.2-0.3
					c-1.8-6.4-9.1-16.8-15-23.5l-7.8-9.8c-5.5-6.8-16.3-7.3-24.2-1l-32.2,25.8c-7.8,6.3-9.8,17-4.2,23.8L68.2,362.5z"/>
			</g>
		</g>
		<g>
			<defs>
				<polygon id="SVGID_7_" points="79,356.2 89.8,344.4 80.8,336.1 69.9,348 				"/>
			</defs>
			<clipPath id="SVGID_8_">
				<use xlink:href="#SVGID_7_"  style="overflow:visible;"/>
			</clipPath>
			<g class="st34">
				<path class="st3" d="M75,352.4c-0.2,0-0.3-0.1-0.4-0.1c-0.1-0.1-0.2-0.3-0.2-0.4v-1.2c0-0.3,0.2-0.6,0.5-0.6c0,0,0,0,0,0h0.1H80
					c0.2,0,0.3-0.2,0.3-0.3l-0.8-11.8l0,0c0-0.3,0.2-0.6,0.6-0.6c0,0,0,0,0,0l1.2-0.1c0.3,0,0.6,0.2,0.6,0.5c0,0,0,0,0,0l0.8,14
					c0,0.2,0,0.3-0.2,0.4c-0.1,0.1-0.3,0.2-0.4,0.2l-7,0.1L75,352.4z"/>
			</g>
		</g>
		<path class="st14" d="M929.3,334.8l-20.1-7.1c-1.8-0.6-3.8,0.3-4.4,2.1c0,0,0,0,0,0l-4.9,13.8c-0.6,1.8,0.3,3.8,2.1,4.4
			c0,0,0,0,0,0l20.1,7.1c1.8,0.6,3.8-0.3,4.4-2.1c0,0,0,0,0,0l4.9-13.8C932.1,337.5,931.1,335.5,929.3,334.8L929.3,334.8z
			 M925,352.5c-0.3,1-1.4,1.5-2.4,1.1l-20.1-7.1c-1-0.3-1.5-1.4-1.1-2.4l4.9-13.8c0.3-1,1.4-1.5,2.4-1.1l20.2,7.1
			c1,0.3,1.5,1.4,1.1,2.4L925,352.5L925,352.5z"/>
		<path class="st14" d="M919.2,342.5l8.6-3.5c0.4-0.2,0.6-0.6,0.4-1c-0.2-0.4-0.6-0.6-1-0.4l-11.9,4.9l-1.2-2.2l0,0L914,340
			l-4.9-8.9c-0.2-0.4-0.7-0.5-1.1-0.3s-0.5,0.7-0.3,1.1l0,0l4.5,8.2l-8.8,3.8c-0.4,0.2-0.6,0.6-0.4,1c0.2,0.4,0.6,0.6,1,0.4l8.9-3.9
			l1.2,2.3c0.2,0.4,0.6,0.5,1,0.4l2.5-1l4.4,8.6c0.1,0.2,0.2,0.3,0.4,0.4c0.2,0.1,0.4,0.1,0.6,0c0.4-0.2,0.5-0.7,0.3-1.1
			L919.2,342.5z"/>
		<path class="st3" d="M924.7,359.7c3.5,0.1,6.5-2.6,6.7-6.1c0-0.1,0-0.1,0-0.2c0-0.2-0.1-0.3-0.3-0.3c-0.2,0-0.3,0.1-0.3,0.3
			c0,3.2-2.7,5.8-5.9,5.7c-0.1,0-0.1,0-0.2,0C924.3,359.1,924.3,359.7,924.7,359.7z"/>
		<path class="st3" d="M928.8,361.4c2.6,0,4.4-2.2,5.3-4.4c0.2-0.4-0.4-0.5-0.6-0.2c-0.8,2-2.4,4-4.7,4c-0.2,0-0.3,0.1-0.3,0.3
			C928.5,361.3,928.6,361.4,928.8,361.4L928.8,361.4z"/>
		<path class="st3" d="M931.4,363c1.7,0.4,3.5-0.6,3.9-2.4c0.1-0.2,0.1-0.5,0.1-0.8c0-0.4-0.6-0.4-0.6,0c0,1.4-1.2,2.6-2.6,2.6
			c-0.2,0-0.4,0-0.6-0.1c-0.2,0-0.3,0-0.4,0.2C931.1,362.8,931.2,362.9,931.4,363L931.4,363L931.4,363z"/>
		<circle class="st21" cx="1070.8" cy="412.3" r="0.6"/>
		<circle class="st21" cx="1076.6" cy="414.6" r="0.6"/>
	</g>
</g>
</svg>
